<svg xmlns="http://www.w3.org/2000/svg" xmlns:xlink="http://www.w3.org/1999/xlink" width="400" zoomAndPan="magnify" viewBox="0 0 300 225" height="300" preserveAspectRatio="xMidYMid meet" version="1.0"><defs><clipPath id="1c3aa361b8"><path d="M 37.5 0 L 262.5 0 L 262.5 225 L 37.5 225 Z M 37.5 0 " clip-rule="nonzero"/></clipPath></defs><g clip-path="url(#1c3aa361b8)"><path fill="#ffffff" d="M 103.914062 1.378906 C 62.460938 3.273438 40.695312 26.589844 38.882812 66.410156 C 37.503906 96.554688 37.503906 128.449219 38.882812 158.59375 C 40.695312 198.414062 62.460938 221.726562 103.914062 223.621094 C 134.0625 224.992188 165.945312 224.992188 196.09375 223.621094 C 235.921875 221.796875 259.226562 200.058594 261.125 158.59375 C 262.492188 128.433594 262.488281 96.566406 261.125 66.410156 C 259.265625 25.820312 236.6875 3.234375 196.09375 1.378906 C 165.945312 0.0078125 134.0625 0.0078125 103.914062 1.378906 Z M 223.097656 52.824219 C 223.097656 60.230469 217.089844 66.242188 209.679688 66.242188 C 202.261719 66.242188 196.261719 60.230469 196.261719 52.824219 C 196.261719 45.417969 202.261719 39.410156 209.679688 39.410156 C 217.089844 39.410156 223.09375 45.417969 223.097656 52.824219 Z M 150.003906 149.761719 C 129.421875 149.761719 112.742188 133.082031 112.742188 112.5 C 112.746094 91.917969 129.421875 75.238281 150 75.238281 C 170.582031 75.238281 187.269531 91.917969 187.269531 112.5 C 187.269531 133.078125 170.582031 149.761719 150 149.761719 Z M 150.003906 55.09375 C 118.304688 55.09375 92.59375 80.796875 92.59375 112.5 C 92.59375 144.203125 118.300781 169.90625 150 169.90625 C 181.707031 169.90625 207.410156 144.203125 207.410156 112.5 C 207.410156 80.796875 181.707031 55.09375 150.003906 55.09375 Z M 195.175781 21.5 C 225.289062 22.875 239.632812 37.210938 241 67.328125 C 242.355469 96.851562 242.351562 128.148438 241 157.675781 C 239.597656 188.65625 224.507812 202.164062 195.175781 203.5 C 165.640625 204.84375 134.363281 204.84375 104.828125 203.5 C 75.496094 202.164062 60.417969 188.65625 59.003906 157.675781 C 57.65625 128.152344 57.65625 96.847656 59.003906 67.328125 C 60.335938 37.984375 73.847656 22.921875 104.828125 21.5 C 134.359375 20.15625 165.644531 20.152344 195.175781 21.5 Z M 195.175781 21.5 " fill-opacity="1" fill-rule="evenodd"/></g></svg>