<svg xmlns="http://www.w3.org/2000/svg" xmlns:xlink="http://www.w3.org/1999/xlink" width="300" zoomAndPan="magnify" viewBox="0 0 224.87999 225" height="300" preserveAspectRatio="xMidYMid meet" version="1.0"><defs><clipPath id="50aa3df69b"><path d="M 0 6 L 224.761719 6 L 224.761719 219.785156 L 0 219.785156 Z M 0 6 " clip-rule="nonzero"/></clipPath><clipPath id="018ec4a86a"><path d="M 0 5.402344 L 224.761719 5.402344 L 224.761719 219.785156 L 0 219.785156 Z M 0 5.402344 " clip-rule="nonzero"/></clipPath></defs><g clip-path="url(#50aa3df69b)"><path fill="#ffffff" d="M 112.730469 6.140625 L 147.375 76.4375 L 224.878906 87.710938 L 168.785156 142.464844 L 182.066406 219.71875 L 112.730469 183.246094 L 43.351562 219.71875 L 56.589844 142.464844 L 0.539062 87.710938 L 78.042969 76.4375 Z M 112.730469 6.140625 " fill-opacity="1" fill-rule="nonzero"/></g><g clip-path="url(#018ec4a86a)"><path fill="#ffffff" d="M 112.191406 5.46875 L 146.882812 75.761719 L 224.386719 87.035156 L 168.289062 141.789062 L 181.527344 219.046875 L 112.191406 182.574219 L 42.859375 219.046875 L 56.097656 141.789062 L 0 87.035156 L 77.503906 75.761719 Z M 112.191406 5.46875 " fill-opacity="1" fill-rule="nonzero"/><path fill="#ffffff" d="M 112.191406 5.46875 L 146.882812 75.761719 L 224.386719 87.035156 L 168.289062 141.789062 L 181.527344 219.046875 L 112.191406 182.574219 L 42.859375 219.046875 L 56.097656 141.789062 L 0 87.035156 L 77.503906 75.761719 Z M 112.191406 5.46875 " fill-opacity="1" fill-rule="nonzero"/><path fill="#ffffff" d="M 112.191406 5.46875 L 146.882812 75.761719 L 224.386719 87.035156 L 168.289062 141.789062 L 181.527344 219.046875 L 112.191406 182.574219 L 42.859375 219.046875 L 56.097656 141.789062 L 0 87.035156 L 77.503906 75.761719 Z M 112.191406 5.46875 " fill-opacity="1" fill-rule="nonzero"/></g></svg>