<svg xmlns="http://www.w3.org/2000/svg" xmlns:xlink="http://www.w3.org/1999/xlink" width="400" zoomAndPan="magnify" viewBox="0 0 300 225" height="300" preserveAspectRatio="xMidYMid meet" version="1.0"><defs><clipPath id="6a86ef87b0"><path d="M 0 7 L 299 7 L 299 219.1875 L 0 219.1875 Z M 0 7 " clip-rule="nonzero"/></clipPath></defs><g clip-path="url(#6a86ef87b0)"><path fill="#f2f2f2" d="M 0.316406 20.070312 C 0.316406 16.300781 2.050781 12.585938 5.316406 10.1875 C 10.757812 6.195312 18.410156 7.371094 22.390625 12.832031 L 149.183594 186.25 L 275.988281 12.832031 C 279.96875 7.371094 287.621094 6.1875 293.0625 10.1875 C 298.511719 14.183594 299.691406 21.839844 295.699219 27.292969 L 159.050781 214.191406 C 156.746094 217.34375 153.085938 219.203125 149.195312 219.203125 C 145.300781 219.203125 141.632812 217.34375 139.335938 214.191406 L 2.679688 27.292969 C 1.082031 25.113281 0.316406 22.574219 0.316406 20.070312 Z M 0.316406 20.070312 " fill-opacity="1" fill-rule="nonzero"/></g></svg>