<svg xmlns="http://www.w3.org/2000/svg" width="300" viewBox="0 0 224.88 225" height="300" version="1.0"><defs><clipPath id="a"><path d="M0 5.578h224.762v213.637H0zm0 0"/></clipPath></defs><g clip-path="url(#a)"><path fill="#f4c01e" d="m112.441 5.578 28.954 65.04a15.545 15.545 0 0 0 5.078 6.265 15.575 15.575 0 0 0 7.535 2.89l70.86 7.415-52.966 47.609a15.57 15.57 0 0 0-4.398 6.762 15.562 15.562 0 0 0-.418 8.05l14.84 69.621-61.692-35.613a15.604 15.604 0 0 0-7.793-2.09c-2.738 0-5.425.723-7.796 2.09L42.957 219.23l14.84-69.62a15.563 15.563 0 0 0-4.82-14.813L.012 87.187l70.863-7.414a15.56 15.56 0 0 0 7.531-2.89 15.545 15.545 0 0 0 5.078-6.266zm0 0" fill-rule="evenodd"/></g></svg>