<svg xmlns="http://www.w3.org/2000/svg" width="400" viewBox="0 0 300 225" height="300" version="1.0"><defs><clipPath id="a"><path d="M37.5 0h225v225h-225zm0 0"/></clipPath></defs><g clip-path="url(#a)"><path fill="#fff" d="M103.914 1.379C62.461 3.273 40.695 26.589 38.883 66.41c-1.38 30.145-1.38 62.04 0 92.184 1.812 39.82 23.578 63.133 65.031 65.027 30.148 1.371 62.031 1.371 92.18 0 39.828-1.824 63.133-23.562 65.031-65.027 1.367-30.16 1.363-62.028 0-92.184-1.86-40.59-24.438-63.176-65.031-65.031-30.149-1.371-62.031-1.371-92.18 0zm119.184 51.445c0 7.406-6.008 13.418-13.418 13.418-7.418 0-13.418-6.012-13.418-13.418s6-13.414 13.418-13.414c7.41 0 13.414 6.008 13.418 13.414zm-73.094 96.938c-20.582 0-37.262-16.68-37.262-37.262.004-20.582 16.68-37.262 37.258-37.262 20.582 0 37.27 16.68 37.27 37.262 0 20.578-16.688 37.262-37.27 37.262zm0-94.668c-31.7 0-57.41 25.703-57.41 57.406S118.3 169.906 150 169.906c31.707 0 57.41-25.703 57.41-57.406s-25.703-57.406-57.406-57.406zM195.176 21.5c30.113 1.375 44.457 15.71 45.824 45.828 1.355 29.524 1.352 60.82 0 90.348-1.402 30.98-16.492 44.488-45.824 45.824-29.535 1.344-60.813 1.344-90.348 0-29.332-1.336-44.41-14.844-45.824-45.824-1.348-29.524-1.348-60.828 0-90.348 1.332-29.344 14.844-44.406 45.824-45.828 29.531-1.344 60.817-1.348 90.348 0zm0 0" fill-rule="evenodd"/></g></svg>