<svg xmlns="http://www.w3.org/2000/svg" width="300" viewBox="0 0 224.88 225" height="300" version="1.0"><defs><clipPath id="a"><path d="M0 6h224.762v213.785H0zm0 0"/></clipPath><clipPath id="b"><path d="M0 5.402h224.762v214.383H0zm0 0"/></clipPath></defs><g clip-path="url(#a)"><path fill="#fff" d="m112.73 6.14 34.645 70.297 77.504 11.274-56.094 54.754 13.281 77.254-69.336-36.473-69.378 36.473 13.238-77.254L.54 87.71l77.503-11.273zm0 0"/></g><g clip-path="url(#b)" fill="#fff"><path d="m112.191 5.469 34.692 70.293 77.504 11.273-56.098 54.754 13.238 77.258-69.336-36.473-69.332 36.473 13.239-77.258L0 87.035l77.504-11.273zm0 0"/><path d="m112.191 5.469 34.692 70.293 77.504 11.273-56.098 54.754 13.238 77.258-69.336-36.473-69.332 36.473 13.239-77.258L0 87.035l77.504-11.273zm0 0"/><path d="m112.191 5.469 34.692 70.293 77.504 11.273-56.098 54.754 13.238 77.258-69.336-36.473-69.332 36.473 13.239-77.258L0 87.035l77.504-11.273zm0 0"/></g></svg>