<svg xmlns="http://www.w3.org/2000/svg" width="300" viewBox="0 0 224.88 225" height="300" version="1.0"><defs><clipPath id="a"><path d="M7 13h210v208.379H7zm0 0"/></clipPath></defs><g clip-path="url(#a)"><path fill="#231f20" d="M112.773 221.309c-5.289.015-10.55-.383-15.78-1.184-5.231-.8-10.372-2.004-15.415-3.602a102.285 102.285 0 0 1-14.68-5.933 102.084 102.084 0 0 1-13.593-8.121L7.328 216.285l17.563-43.95c-1-1.612-1.957-3.25-2.868-4.913a106.388 106.388 0 0 1-2.59-5.063 106.26 106.26 0 0 1-2.308-5.199 102.717 102.717 0 0 1-3.75-10.742 105.415 105.415 0 0 1-2.55-11.086 101.162 101.162 0 0 1-.817-5.629c-.223-1.887-.39-3.773-.508-5.668-.117-1.894-.184-3.789-.195-5.687a102.454 102.454 0 0 1 .543-11.364 101.811 101.811 0 0 1 1.78-11.238 102.695 102.695 0 0 1 3-10.973 104.618 104.618 0 0 1 4.18-10.574 101.304 101.304 0 0 1 2.52-5.101 104.652 104.652 0 0 1 5.856-9.75 106.964 106.964 0 0 1 3.32-4.618 107.772 107.772 0 0 1 3.566-4.43 105.51 105.51 0 0 1 7.836-8.234 104.579 104.579 0 0 1 8.688-7.328 103.575 103.575 0 0 1 9.437-6.328c1.63-.969 3.285-1.89 4.965-2.765a102.797 102.797 0 0 1 15.695-6.61 103.268 103.268 0 0 1 16.563-3.941c1.875-.285 3.754-.52 5.637-.703a105.93 105.93 0 0 1 5.668-.391 105.98 105.98 0 0 1 5.68-.078c1.894.027 3.788.105 5.675.234 1.89.133 3.777.313 5.656.547 1.88.235 3.75.52 5.618.856 1.863.336 3.718.722 5.558 1.164 1.844.437 3.672.925 5.488 1.465 1.817.539 3.618 1.128 5.403 1.765a103.822 103.822 0 0 1 15.508 7.04 103.466 103.466 0 0 1 22.633 17.05 105.336 105.336 0 0 1 3.917 4.117 105.232 105.232 0 0 1 7.133 8.856 106.99 106.99 0 0 1 3.192 4.707 105.911 105.911 0 0 1 2.93 4.875 104.613 104.613 0 0 1 5.034 10.199 102.518 102.518 0 0 1 2.09 5.289 102.612 102.612 0 0 1 3.3 10.887c.45 1.843.853 3.699 1.2 5.562a104.469 104.469 0 0 1 1.746 16.965 106.34 106.34 0 0 1-.043 5.691 106.25 106.25 0 0 1-.351 5.68c-.168 1.89-.39 3.774-.66 5.652a103.494 103.494 0 0 1-2.25 11.148c-.473 1.84-1 3.661-1.579 5.47-.574 1.808-1.199 3.597-1.875 5.37a102.609 102.609 0 0 1-4.617 10.395 102.543 102.543 0 0 1-5.727 9.824 103.638 103.638 0 0 1-6.765 9.137 102.556 102.556 0 0 1-7.723 8.34 104.433 104.433 0 0 1-8.59 7.441c-1.5 1.16-3.03 2.282-4.59 3.356a103.656 103.656 0 0 1-9.69 5.934c-1.669.898-3.36 1.75-5.075 2.554a102.435 102.435 0 0 1-15.957 5.95c-1.824.515-3.66.976-5.508 1.39-1.847.41-3.707.773-5.578 1.082-1.867.313-3.742.57-5.625.777a101.82 101.82 0 0 1-5.664.465c-1.89.102-3.785.156-5.68.153zM54.38 196.055l1.164.847a96.69 96.69 0 0 0 13.023 8 96.567 96.567 0 0 0 28.973 9.403 96.57 96.57 0 0 0 15.234 1.172c53.809 0 97.586-43.856 97.586-97.758 0-53.903-43.773-97.758-97.586-97.758-53.808 0-97.59 43.855-97.59 97.758a97.677 97.677 0 0 0 3.919 27.484 97.438 97.438 0 0 0 11.492 25.258l.812 1.266-14.183 35.496zm0 0"/></g><path fill="#231f20" d="M147.172 187.121c-.793 0-1.594-.031-2.399-.098a105.05 105.05 0 0 1-10.097-1.332 99.243 99.243 0 0 1-4.992-1.035 107.365 107.365 0 0 1-4.93-1.277 106.165 106.165 0 0 1-9.649-3.281 102.951 102.951 0 0 1-9.277-4.211 101.042 101.042 0 0 1-4.473-2.446 102.566 102.566 0 0 1-4.347-2.66 102.61 102.61 0 0 1-8.281-5.945 103.808 103.808 0 0 1-3.91-3.274 104.348 104.348 0 0 1-3.747-3.457 104.615 104.615 0 0 1-6.96-7.453 100.737 100.737 0 0 1-3.196-3.972 102.722 102.722 0 0 1-5.793-8.395 105.398 105.398 0 0 1-2.582-4.402 105.597 105.597 0 0 1-2.36-4.52 101.434 101.434 0 0 1-2.136-4.636 97.19 97.19 0 0 1-1.906-4.73c-.598-1.595-1.157-3.2-1.676-4.821a106.475 106.475 0 0 1-1.434-4.899 104.028 104.028 0 0 1-2.14-9.977 105.441 105.441 0 0 1-1.153-10.14c-.109-1.7-.175-3.398-.203-5.097a105.9 105.9 0 0 1 .348-10.2c.078-.945.203-1.883.371-2.816.172-.93.387-1.852.645-2.762a29.398 29.398 0 0 1 2.082-5.273c.433-.844.906-1.66 1.418-2.457a30.201 30.201 0 0 1 1.652-2.309c.59-.738 1.21-1.45 1.871-2.133a29.347 29.347 0 0 1 2.066-1.937 29.106 29.106 0 0 1 4.657-3.227 30.696 30.696 0 0 1 2.543-1.254 29.28 29.28 0 0 1 5.39-1.73c.926-.2 1.856-.352 2.797-.461.938-.11 1.883-.168 2.828-.184.946-.015 1.887.016 2.832.094 2.758.227 5.426.836 8.008 1.828.742.29 1.465.602 2.148.934l1.407.687 6.09 46.266-1.192 1.031a28.617 28.617 0 0 1-9.941 5.602 69.514 69.514 0 0 0 6.054 13.511 69.402 69.402 0 0 0 8.77 11.926l.008.008a68.12 68.12 0 0 0 19.12 14.688 28.776 28.776 0 0 1 6.7-8.528l1.098-.953 43.43 9.285.609 1.317a28.847 28.847 0 0 1 1.645 19.848 29.524 29.524 0 0 1-.833 2.554c-.316.84-.672 1.66-1.066 2.465a29.971 29.971 0 0 1-1.29 2.36 28.447 28.447 0 0 1-3.202 4.304 29 29 0 0 1-8.485 6.484c-.8.403-1.617.77-2.453 1.094-.832.328-1.68.617-2.539.863a28.475 28.475 0 0 1-5.265 1.004c-.891.086-1.786.13-2.68.13zM78.617 54.148c-.715 0-1.43.036-2.14.106a22.898 22.898 0 0 0-6.23 1.488 22.36 22.36 0 0 0-3.821 1.926c-.606.379-1.192.785-1.762 1.223-.566.433-1.113.89-1.637 1.379-.527.484-1.027.992-1.507 1.523-.477.535-.93 1.086-1.356 1.66a23.54 23.54 0 0 0-1.195 1.777 21.972 21.972 0 0 0-1.028 1.883c-.316.645-.597 1.301-.851 1.969a23.835 23.835 0 0 0-1.133 4.133 22.898 22.898 0 0 0-.273 2.125 94.442 94.442 0 0 0-.278 4.808 94.29 94.29 0 0 0-.043 4.817c.024 1.605.09 3.21.196 4.812.101 1.606.246 3.203.43 4.797a93.45 93.45 0 0 0 .663 4.774 97.882 97.882 0 0 0 6.758 23.047 98.28 98.28 0 0 0 4.25 8.64c.777 1.403 1.59 2.79 2.434 4.153a98.96 98.96 0 0 0 8.484 11.672 107.297 107.297 0 0 0 3.2 3.597 96.34 96.34 0 0 0 3.37 3.434 96.342 96.342 0 0 0 3.536 3.265 95.728 95.728 0 0 0 3.687 3.086c1.258 1 2.535 1.969 3.836 2.906a100.198 100.198 0 0 0 8.078 5.223 100.194 100.194 0 0 0 8.55 4.402 93.984 93.984 0 0 0 4.427 1.883 95.781 95.781 0 0 0 4.511 1.66c1.52.52 3.047.996 4.59 1.438 1.54.445 3.09.848 4.653 1.21 1.562.368 3.129.696 4.707.981 1.578.29 3.16.54 4.75.75 1.59.211 3.183.383 4.78.512.892.074 1.782.098 2.673.066a22.847 22.847 0 0 0 5.273-.8 22.994 22.994 0 0 0 9.313-5.07 22.14 22.14 0 0 0 1.886-1.895 22.505 22.505 0 0 0 1.653-2.106 23.025 23.025 0 0 0 3.906-9.87c.129-.884.207-1.774.234-2.665a23.521 23.521 0 0 0-.46-5.324 22.757 22.757 0 0 0-1.11-3.754l-37.64-8.05a22.916 22.916 0 0 0-5.348 8.152l-1.117 2.914-2.829-1.317c-8.636-4.02-16.226-9.5-22.765-16.437l-1.707-.067.062-1.734a75.31 75.31 0 0 1-9.785-13.953A75.33 75.33 0 0 1 81.09 103.5l-.836-3.012 3.055-.629a22.673 22.673 0 0 0 9.183-4.152l-5.254-39.902c-.097-.04-.195-.078-.293-.117a22.874 22.874 0 0 0-6.394-1.458 23 23 0 0 0-1.934-.082zm0 0"/></svg>