<svg xmlns="http://www.w3.org/2000/svg" xmlns:xlink="http://www.w3.org/1999/xlink" width="300" zoomAndPan="magnify" viewBox="0 0 224.87999 225" height="300" preserveAspectRatio="xMidYMid meet" version="1.0"><defs><clipPath id="222f3a2b72"><path d="M 7 13 L 217 13 L 217 221.378906 L 7 221.378906 Z M 7 13 " clip-rule="nonzero"/></clipPath></defs><g clip-path="url(#222f3a2b72)"><path fill="#231f20" d="M 112.773438 221.308594 C 107.484375 221.324219 102.222656 220.925781 96.992188 220.125 C 91.761719 219.324219 86.621094 218.121094 81.578125 216.523438 C 76.53125 214.925781 71.636719 212.945312 66.898438 210.589844 C 62.15625 208.234375 57.625 205.527344 53.304688 202.46875 L 7.328125 216.285156 L 24.890625 172.335938 C 23.890625 170.722656 22.933594 169.085938 22.023438 167.421875 C 21.117188 165.757812 20.25 164.070312 19.433594 162.359375 C 18.617188 160.644531 17.847656 158.914062 17.125 157.160156 C 16.402344 155.40625 15.726562 153.632812 15.101562 151.839844 C 14.476562 150.050781 13.902344 148.242188 13.375 146.417969 C 12.851562 144.597656 12.375 142.761719 11.949219 140.910156 C 11.523438 139.0625 11.148438 137.203125 10.824219 135.332031 C 10.5 133.464844 10.226562 131.585938 10.007812 129.703125 C 9.785156 127.816406 9.617188 125.929688 9.5 124.035156 C 9.382812 122.140625 9.316406 120.246094 9.304688 118.347656 C 9.289062 116.449219 9.328125 114.554688 9.417969 112.65625 C 9.511719 110.761719 9.652344 108.871094 9.847656 106.984375 C 10.039062 105.097656 10.285156 103.214844 10.582031 101.339844 C 10.878906 99.46875 11.230469 97.601562 11.628906 95.746094 C 12.027344 93.894531 12.476562 92.050781 12.976562 90.21875 C 13.476562 88.390625 14.027344 86.574219 14.628906 84.773438 C 15.226562 82.976562 15.875 81.191406 16.574219 79.429688 C 17.273438 77.664062 18.015625 75.921875 18.808594 74.199219 C 19.601562 72.472656 20.441406 70.773438 21.328125 69.097656 C 22.214844 67.417969 23.148438 65.769531 24.125 64.140625 C 25.101562 62.515625 26.121094 60.917969 27.183594 59.347656 C 28.25 57.78125 29.355469 56.238281 30.503906 54.730469 C 31.652344 53.222656 32.84375 51.746094 34.070312 50.300781 C 35.300781 48.859375 36.570312 47.449219 37.875 46.078125 C 39.183594 44.703125 40.527344 43.367188 41.90625 42.066406 C 43.285156 40.765625 44.699219 39.503906 46.148438 38.285156 C 47.597656 37.0625 49.082031 35.878906 50.59375 34.738281 C 52.109375 33.597656 53.652344 32.5 55.226562 31.445312 C 56.800781 30.390625 58.402344 29.378906 60.03125 28.410156 C 61.660156 27.441406 63.316406 26.519531 64.996094 25.644531 C 66.675781 24.765625 68.378906 23.9375 70.105469 23.152344 C 71.828125 22.371094 73.574219 21.636719 75.339844 20.949219 C 77.105469 20.261719 78.890625 19.625 80.691406 19.035156 C 82.492188 18.445312 84.308594 17.90625 86.136719 17.417969 C 87.96875 16.929688 89.808594 16.488281 91.664062 16.101562 C 93.519531 15.714844 95.382812 15.378906 97.253906 15.09375 C 99.128906 14.808594 101.007812 14.574219 102.890625 14.390625 C 104.777344 14.210938 106.667969 14.078125 108.558594 14 C 110.453125 13.921875 112.347656 13.898438 114.238281 13.921875 C 116.132812 13.949219 118.027344 14.027344 119.914062 14.15625 C 121.804688 14.289062 123.691406 14.46875 125.570312 14.703125 C 127.449219 14.9375 129.320312 15.222656 131.1875 15.558594 C 133.050781 15.894531 134.90625 16.28125 136.746094 16.722656 C 138.589844 17.160156 140.417969 17.648438 142.234375 18.1875 C 144.050781 18.726562 145.851562 19.316406 147.636719 19.953125 C 149.421875 20.59375 151.183594 21.277344 152.933594 22.015625 C 154.679688 22.75 156.402344 23.53125 158.105469 24.363281 C 159.808594 25.191406 161.488281 26.070312 163.144531 26.992188 C 164.800781 27.914062 166.429688 28.882812 168.03125 29.894531 C 169.632812 30.90625 171.207031 31.960938 172.75 33.058594 C 174.296875 34.15625 175.808594 35.296875 177.292969 36.480469 C 178.773438 37.660156 180.222656 38.882812 181.636719 40.144531 C 183.050781 41.40625 184.433594 42.703125 185.777344 44.042969 C 187.121094 45.378906 188.425781 46.753906 189.695312 48.160156 C 190.964844 49.570312 192.191406 51.015625 193.382812 52.492188 C 194.570312 53.96875 195.71875 55.476562 196.828125 57.015625 C 197.933594 58.554688 198.996094 60.125 200.019531 61.722656 C 201.039062 63.320312 202.015625 64.945312 202.949219 66.597656 C 203.878906 68.25 204.765625 69.925781 205.605469 71.628906 C 206.445312 73.328125 207.238281 75.050781 207.984375 76.796875 C 208.730469 78.539062 209.425781 80.304688 210.074219 82.085938 C 210.726562 83.871094 211.324219 85.667969 211.875 87.484375 C 212.425781 89.300781 212.925781 91.128906 213.375 92.972656 C 213.824219 94.816406 214.226562 96.671875 214.574219 98.535156 C 214.921875 100.398438 215.21875 102.273438 215.464844 104.15625 C 215.710938 106.035156 215.90625 107.921875 216.046875 109.816406 C 216.1875 111.707031 216.28125 113.601562 216.320312 115.5 C 216.355469 117.398438 216.34375 119.292969 216.277344 121.191406 C 216.210938 123.085938 216.09375 124.980469 215.925781 126.871094 C 215.757812 128.761719 215.535156 130.644531 215.265625 132.523438 C 214.992188 134.398438 214.667969 136.269531 214.292969 138.128906 C 213.917969 139.988281 213.492188 141.835938 213.015625 143.671875 C 212.542969 145.511719 212.015625 147.332031 211.4375 149.140625 C 210.863281 150.949219 210.238281 152.738281 209.5625 154.511719 C 208.890625 156.285156 208.167969 158.039062 207.398438 159.773438 C 206.628906 161.503906 205.8125 163.21875 204.945312 164.90625 C 204.082031 166.59375 203.171875 168.257812 202.21875 169.898438 C 201.261719 171.535156 200.265625 173.148438 199.21875 174.730469 C 198.175781 176.3125 197.089844 177.867188 195.960938 179.390625 C 194.832031 180.917969 193.664062 182.40625 192.453125 183.867188 C 191.242188 185.328125 189.996094 186.753906 188.707031 188.144531 C 187.417969 189.535156 186.09375 190.890625 184.730469 192.207031 C 183.367188 193.527344 181.96875 194.804688 180.535156 196.046875 C 179.101562 197.289062 177.636719 198.488281 176.140625 199.648438 C 174.640625 200.808594 173.109375 201.929688 171.550781 203.003906 C 169.992188 204.082031 168.402344 205.113281 166.785156 206.105469 C 165.171875 207.09375 163.527344 208.039062 161.859375 208.9375 C 160.191406 209.835938 158.5 210.6875 156.785156 211.492188 C 155.070312 212.300781 153.332031 213.058594 151.578125 213.769531 C 149.820312 214.476562 148.046875 215.140625 146.253906 215.753906 C 144.460938 216.367188 142.652344 216.929688 140.828125 217.441406 C 139.003906 217.957031 137.167969 218.417969 135.320312 218.832031 C 133.472656 219.242188 131.613281 219.605469 129.742188 219.914062 C 127.875 220.226562 126 220.484375 124.117188 220.691406 C 122.234375 220.898438 120.34375 221.054688 118.453125 221.15625 C 116.5625 221.257812 114.667969 221.3125 112.773438 221.308594 Z M 54.378906 196.054688 L 55.542969 196.902344 C 59.671875 199.914062 64.015625 202.578125 68.566406 204.902344 C 73.117188 207.226562 77.824219 209.175781 82.683594 210.753906 C 87.542969 212.328125 92.492188 213.515625 97.539062 214.304688 C 102.585938 215.097656 107.664062 215.488281 112.773438 215.476562 C 166.582031 215.476562 210.359375 171.621094 210.359375 117.71875 C 210.359375 63.816406 166.585938 19.960938 112.773438 19.960938 C 58.964844 19.960938 15.183594 63.816406 15.183594 117.71875 C 15.179688 122.371094 15.503906 126.996094 16.160156 131.601562 C 16.816406 136.203125 17.796875 140.738281 19.101562 145.203125 C 20.402344 149.664062 22.019531 154.011719 23.945312 158.246094 C 25.871094 162.476562 28.085938 166.546875 30.59375 170.460938 L 31.40625 171.726562 L 17.222656 207.222656 Z M 54.378906 196.054688 " fill-opacity="1" fill-rule="nonzero"/></g><path fill="#231f20" d="M 147.171875 187.121094 C 146.378906 187.121094 145.578125 187.089844 144.773438 187.023438 C 143.082031 186.882812 141.390625 186.703125 139.707031 186.480469 C 138.023438 186.261719 136.347656 185.996094 134.675781 185.691406 C 133.003906 185.390625 131.339844 185.042969 129.683594 184.65625 C 128.03125 184.269531 126.386719 183.84375 124.753906 183.378906 C 123.121094 182.910156 121.5 182.402344 119.890625 181.855469 C 118.28125 181.308594 116.6875 180.722656 115.105469 180.097656 C 113.527344 179.472656 111.960938 178.808594 110.414062 178.105469 C 108.867188 177.402344 107.339844 176.664062 105.828125 175.886719 C 104.316406 175.109375 102.824219 174.292969 101.355469 173.441406 C 99.882812 172.589844 98.433594 171.703125 97.007812 170.78125 C 95.578125 169.859375 94.175781 168.902344 92.792969 167.910156 C 91.414062 166.917969 90.058594 165.894531 88.726562 164.835938 C 87.398438 163.777344 86.09375 162.6875 84.816406 161.5625 C 83.539062 160.441406 82.292969 159.289062 81.070312 158.105469 C 79.851562 156.921875 78.660156 155.707031 77.5 154.464844 C 76.339844 153.222656 75.210938 151.953125 74.109375 150.652344 C 73.011719 149.355469 71.945312 148.03125 70.914062 146.679688 C 69.878906 145.328125 68.878906 143.953125 67.914062 142.554688 C 66.949219 141.152344 66.015625 139.730469 65.121094 138.285156 C 64.226562 136.839844 63.363281 135.371094 62.539062 133.882812 C 61.714844 132.394531 60.929688 130.886719 60.179688 129.363281 C 59.429688 127.835938 58.714844 126.289062 58.042969 124.726562 C 57.367188 123.167969 56.730469 121.589844 56.136719 119.996094 C 55.539062 118.402344 54.980469 116.796875 54.460938 115.175781 C 53.945312 113.554688 53.464844 111.921875 53.027344 110.277344 C 52.589844 108.632812 52.191406 106.980469 51.835938 105.316406 C 51.476562 103.652344 51.164062 101.980469 50.886719 100.300781 C 50.613281 98.621094 50.378906 96.933594 50.1875 95.246094 C 49.996094 93.554688 49.84375 91.859375 49.734375 90.160156 C 49.625 88.460938 49.558594 86.761719 49.53125 85.0625 C 49.507812 83.359375 49.523438 81.65625 49.582031 79.957031 C 49.640625 78.257812 49.738281 76.558594 49.878906 74.863281 C 49.957031 73.917969 50.082031 72.980469 50.25 72.046875 C 50.421875 71.117188 50.636719 70.195312 50.894531 69.285156 C 51.15625 68.375 51.460938 67.476562 51.808594 66.597656 C 52.15625 65.714844 52.546875 64.855469 52.976562 64.011719 C 53.410156 63.167969 53.882812 62.351562 54.394531 61.554688 C 54.910156 60.757812 55.460938 59.988281 56.046875 59.246094 C 56.636719 58.507812 57.257812 57.796875 57.917969 57.113281 C 58.574219 56.433594 59.265625 55.789062 59.984375 55.175781 C 60.707031 54.5625 61.457031 53.988281 62.234375 53.449219 C 63.011719 52.910156 63.816406 52.410156 64.640625 51.949219 C 65.46875 51.492188 66.316406 51.074219 67.183594 50.695312 C 68.050781 50.320312 68.9375 49.988281 69.835938 49.699219 C 70.738281 49.410156 71.648438 49.164062 72.574219 48.964844 C 73.5 48.765625 74.429688 48.613281 75.371094 48.503906 C 76.308594 48.394531 77.253906 48.335938 78.199219 48.320312 C 79.144531 48.304688 80.085938 48.335938 81.03125 48.414062 C 83.789062 48.640625 86.457031 49.25 89.039062 50.242188 C 89.78125 50.53125 90.503906 50.84375 91.1875 51.175781 L 92.59375 51.863281 L 98.683594 98.128906 L 97.492188 99.160156 C 94.554688 101.695312 91.238281 103.5625 87.550781 104.761719 C 89.089844 109.480469 91.105469 113.988281 93.605469 118.273438 C 96.105469 122.5625 99.027344 126.539062 102.375 130.199219 L 102.382812 130.207031 C 107.886719 136.242188 114.257812 141.136719 121.503906 144.894531 C 123.195312 141.628906 125.429688 138.785156 128.203125 136.367188 L 129.300781 135.414062 L 172.730469 144.699219 L 173.339844 146.015625 C 174.394531 148.289062 175.140625 150.660156 175.582031 153.128906 C 176.019531 155.597656 176.132812 158.078125 175.925781 160.578125 C 175.851562 161.46875 175.734375 162.359375 175.578125 163.242188 C 175.421875 164.125 175.222656 164.996094 174.984375 165.863281 C 174.746094 166.726562 174.46875 167.578125 174.152344 168.417969 C 173.835938 169.257812 173.480469 170.078125 173.085938 170.882812 C 172.691406 171.6875 172.261719 172.476562 171.796875 173.242188 C 171.332031 174.007812 170.832031 174.75 170.296875 175.46875 C 169.761719 176.1875 169.191406 176.878906 168.59375 177.546875 C 167.996094 178.210938 167.367188 178.847656 166.707031 179.457031 C 166.050781 180.0625 165.363281 180.640625 164.652344 181.183594 C 163.941406 181.726562 163.207031 182.238281 162.445312 182.714844 C 161.6875 183.1875 160.90625 183.628906 160.109375 184.03125 C 159.308594 184.433594 158.492188 184.800781 157.65625 185.125 C 156.824219 185.453125 155.976562 185.742188 155.117188 185.988281 C 154.257812 186.238281 153.386719 186.445312 152.507812 186.613281 C 151.628906 186.78125 150.742188 186.90625 149.851562 186.992188 C 148.960938 187.078125 148.066406 187.121094 147.171875 187.121094 Z M 78.617188 54.148438 C 77.902344 54.148438 77.1875 54.183594 76.476562 54.253906 C 75.765625 54.320312 75.058594 54.421875 74.355469 54.554688 C 73.65625 54.6875 72.960938 54.855469 72.273438 55.050781 C 71.585938 55.25 70.910156 55.480469 70.246094 55.742188 C 69.582031 56 68.929688 56.292969 68.292969 56.613281 C 67.652344 56.9375 67.03125 57.289062 66.425781 57.667969 C 65.820312 58.046875 65.234375 58.453125 64.664062 58.890625 C 64.097656 59.324219 63.550781 59.78125 63.027344 60.269531 C 62.5 60.753906 62 61.261719 61.519531 61.792969 C 61.042969 62.328125 60.589844 62.878906 60.164062 63.453125 C 59.738281 64.027344 59.339844 64.621094 58.96875 65.230469 C 58.59375 65.84375 58.253906 66.46875 57.941406 67.113281 C 57.625 67.757812 57.34375 68.414062 57.089844 69.082031 C 56.839844 69.753906 56.617188 70.433594 56.429688 71.121094 C 56.238281 71.8125 56.082031 72.511719 55.957031 73.214844 C 55.832031 73.917969 55.742188 74.628906 55.683594 75.339844 C 55.550781 76.941406 55.457031 78.546875 55.40625 80.148438 C 55.351562 81.753906 55.335938 83.359375 55.363281 84.964844 C 55.386719 86.570312 55.453125 88.175781 55.558594 89.777344 C 55.660156 91.382812 55.804688 92.980469 55.988281 94.574219 C 56.167969 96.171875 56.390625 97.761719 56.652344 99.347656 C 56.910156 100.929688 57.210938 102.507812 57.546875 104.078125 C 57.886719 105.648438 58.261719 107.210938 58.675781 108.761719 C 59.089844 110.3125 59.539062 111.851562 60.03125 113.382812 C 60.519531 114.910156 61.046875 116.425781 61.609375 117.929688 C 62.175781 119.433594 62.773438 120.921875 63.410156 122.394531 C 64.050781 123.871094 64.722656 125.328125 65.429688 126.769531 C 66.136719 128.207031 66.882812 129.632812 67.660156 131.035156 C 68.4375 132.4375 69.25 133.824219 70.09375 135.1875 C 70.941406 136.550781 71.820312 137.894531 72.730469 139.214844 C 73.644531 140.535156 74.585938 141.835938 75.5625 143.109375 C 76.539062 144.382812 77.542969 145.632812 78.578125 146.859375 C 79.617188 148.082031 80.683594 149.28125 81.777344 150.457031 C 82.871094 151.628906 83.996094 152.773438 85.148438 153.890625 C 86.300781 155.007812 87.476562 156.097656 88.683594 157.15625 C 89.886719 158.214844 91.117188 159.246094 92.371094 160.242188 C 93.628906 161.242188 94.90625 162.210938 96.207031 163.148438 C 97.511719 164.082031 98.835938 164.988281 100.183594 165.855469 C 101.53125 166.726562 102.898438 167.566406 104.285156 168.371094 C 105.671875 169.171875 107.082031 169.941406 108.507812 170.675781 C 109.933594 171.410156 111.375 172.109375 112.835938 172.773438 C 114.292969 173.4375 115.769531 174.066406 117.261719 174.65625 C 118.75 175.246094 120.253906 175.800781 121.773438 176.316406 C 123.292969 176.835938 124.820312 177.3125 126.363281 177.753906 C 127.902344 178.199219 129.453125 178.601562 131.015625 178.964844 C 132.578125 179.332031 134.144531 179.660156 135.722656 179.945312 C 137.300781 180.234375 138.882812 180.484375 140.472656 180.695312 C 142.0625 180.90625 143.65625 181.078125 145.253906 181.207031 C 146.144531 181.28125 147.035156 181.304688 147.925781 181.273438 C 148.816406 181.242188 149.703125 181.160156 150.585938 181.027344 C 151.46875 180.894531 152.339844 180.707031 153.199219 180.472656 C 154.0625 180.238281 154.90625 179.953125 155.734375 179.621094 C 156.5625 179.289062 157.367188 178.910156 158.152344 178.480469 C 158.9375 178.054688 159.691406 177.585938 160.421875 177.070312 C 161.152344 176.554688 161.847656 176 162.511719 175.402344 C 163.179688 174.808594 163.808594 174.175781 164.398438 173.507812 C 164.992188 172.835938 165.542969 172.136719 166.050781 171.402344 C 166.5625 170.671875 167.027344 169.910156 167.453125 169.121094 C 167.875 168.335938 168.25 167.527344 168.578125 166.695312 C 168.90625 165.863281 169.1875 165.015625 169.417969 164.152344 C 169.648438 163.289062 169.828125 162.417969 169.957031 161.53125 C 170.085938 160.648438 170.164062 159.757812 170.191406 158.867188 C 170.214844 157.972656 170.191406 157.082031 170.113281 156.191406 C 170.039062 155.300781 169.910156 154.417969 169.730469 153.542969 C 169.46875 152.257812 169.097656 151.007812 168.621094 149.789062 L 130.980469 141.738281 C 128.613281 144.070312 126.832031 146.789062 125.632812 149.890625 L 124.515625 152.804688 L 121.6875 151.488281 C 113.050781 147.46875 105.460938 141.988281 98.921875 135.050781 L 97.214844 134.984375 L 97.277344 133.25 C 93.488281 128.96875 90.226562 124.320312 87.492188 119.296875 C 84.761719 114.273438 82.625 109.007812 81.089844 103.5 L 80.253906 100.488281 L 83.308594 99.859375 C 86.679688 99.164062 89.742188 97.78125 92.492188 95.707031 L 87.238281 55.804688 C 87.140625 55.765625 87.042969 55.726562 86.945312 55.6875 C 84.886719 54.894531 82.753906 54.410156 80.550781 54.230469 C 79.902344 54.175781 79.257812 54.148438 78.617188 54.148438 Z M 78.617188 54.148438 " fill-opacity="1" fill-rule="nonzero"/></svg>