<svg xmlns="http://www.w3.org/2000/svg" xmlns:xlink="http://www.w3.org/1999/xlink" width="300" zoomAndPan="magnify" viewBox="0 0 224.87999 225" height="300" preserveAspectRatio="xMidYMid meet" version="1.0"><defs><clipPath id="2d4e8f37b2"><path d="M 13.210938 0.0585938 L 223 0.0585938 L 223 224.9375 L 13.210938 224.9375 Z M 13.210938 0.0585938 " clip-rule="nonzero"/></clipPath></defs><g clip-path="url(#2d4e8f37b2)"><path fill="#000000" d="M 48.578125 69.144531 L 48.578125 86.1875 C 48.578125 91.226562 52.671875 95.324219 57.703125 95.324219 L 74.726562 95.324219 C 79.757812 95.324219 83.851562 91.226562 83.851562 86.1875 L 83.851562 75.4375 L 93.921875 66.289062 C 95.355469 64.984375 95.464844 62.761719 94.164062 61.324219 C 92.859375 59.886719 90.640625 59.78125 89.207031 61.082031 L 83.410156 66.347656 C 82.230469 62.671875 78.785156 60.003906 74.726562 60.003906 L 57.703125 60.003906 C 52.671875 60.003906 48.578125 64.105469 48.578125 69.144531 Z M 76.832031 69.144531 L 76.832031 72.328125 L 71.609375 77.074219 L 65.707031 71.164062 C 64.335938 69.792969 62.113281 69.792969 60.746094 71.164062 C 59.375 72.539062 59.375 74.761719 60.746094 76.136719 L 69.007812 84.410156 C 69.691406 85.09375 70.589844 85.441406 71.492188 85.441406 C 72.335938 85.441406 73.179688 85.136719 73.847656 84.527344 L 76.832031 81.816406 L 76.832031 86.1875 C 76.832031 87.332031 75.867188 88.296875 74.726562 88.296875 L 57.703125 88.296875 C 56.558594 88.296875 55.59375 87.332031 55.59375 86.1875 L 55.59375 69.144531 C 55.59375 68 56.558594 67.03125 57.703125 67.03125 L 74.726562 67.03125 C 75.867188 67.03125 76.832031 68 76.832031 69.144531 Z M 89.207031 108.890625 L 83.410156 114.15625 C 82.230469 110.480469 78.785156 107.808594 74.726562 107.808594 L 57.703125 107.808594 C 52.671875 107.808594 48.578125 111.910156 48.578125 116.949219 L 48.578125 133.992188 C 48.578125 139.03125 52.671875 143.132812 57.703125 143.132812 L 74.726562 143.132812 C 79.757812 143.132812 83.851562 139.03125 83.851562 133.992188 L 83.851562 123.246094 L 93.921875 114.09375 C 95.355469 112.789062 95.464844 110.566406 94.160156 109.128906 C 92.859375 107.691406 90.640625 107.585938 89.207031 108.890625 Z M 76.832031 133.992188 C 76.832031 135.136719 75.867188 136.105469 74.726562 136.105469 L 57.703125 136.105469 C 56.558594 136.105469 55.59375 135.136719 55.59375 133.992188 L 55.59375 116.949219 C 55.59375 115.804688 56.558594 114.839844 57.703125 114.839844 L 74.726562 114.839844 C 75.867188 114.839844 76.832031 115.804688 76.832031 116.949219 L 76.832031 120.132812 L 71.609375 124.878906 L 65.707031 118.972656 C 64.335938 117.601562 62.113281 117.601562 60.746094 118.972656 C 59.375 120.34375 59.375 122.566406 60.746094 123.941406 L 69.007812 132.214844 C 69.691406 132.902344 70.589844 133.246094 71.492188 133.246094 C 72.335938 133.246094 73.179688 132.945312 73.847656 132.332031 L 76.832031 129.621094 Z M 89.207031 156.695312 L 83.410156 161.960938 C 82.230469 158.285156 78.785156 155.617188 74.726562 155.617188 L 57.703125 155.617188 C 52.671875 155.617188 48.578125 159.714844 48.578125 164.753906 L 48.578125 181.800781 C 48.578125 186.839844 52.671875 190.9375 57.703125 190.9375 L 74.726562 190.9375 C 79.757812 190.9375 83.851562 186.839844 83.851562 181.800781 L 83.851562 171.050781 L 93.921875 161.898438 C 95.355469 160.59375 95.464844 158.375 94.160156 156.9375 C 92.859375 155.5 90.640625 155.390625 89.207031 156.695312 Z M 76.832031 181.800781 C 76.832031 182.941406 75.867188 183.910156 74.726562 183.910156 L 57.703125 183.910156 C 56.558594 183.910156 55.59375 182.941406 55.59375 181.800781 L 55.59375 164.753906 C 55.59375 163.609375 56.558594 162.644531 57.703125 162.644531 L 74.726562 162.644531 C 75.867188 162.644531 76.832031 163.609375 76.832031 164.753906 L 76.832031 167.9375 L 71.609375 172.6875 L 65.707031 166.777344 C 64.335938 165.40625 62.113281 165.40625 60.746094 166.777344 C 59.375 168.148438 59.375 170.375 60.746094 171.746094 L 69.007812 180.023438 C 69.691406 180.707031 70.589844 181.050781 71.492188 181.050781 C 72.335938 181.050781 73.179688 180.75 73.847656 180.140625 L 76.832031 177.425781 Z M 106.007812 17.1875 C 106.007812 19.605469 104.035156 21.578125 101.621094 21.578125 C 99.203125 21.578125 97.234375 19.605469 97.234375 17.1875 C 97.234375 14.765625 99.203125 12.792969 101.621094 12.792969 C 104.035156 12.792969 106.007812 14.765625 106.007812 17.1875 Z M 216.238281 41.519531 L 212.960938 39.625 C 206.765625 36.042969 198.820312 38.175781 195.242188 44.378906 L 189.988281 53.488281 L 189.988281 31.941406 C 189.988281 24.617188 184.039062 18.660156 176.726562 18.660156 L 142.683594 18.660156 L 142.683594 16.273438 C 142.683594 14.332031 141.109375 12.757812 139.171875 12.757812 L 120.300781 12.757812 C 117.3125 5.160156 109.984375 0.0585938 101.617188 0.0585938 C 93.253906 0.0585938 85.925781 5.160156 82.9375 12.757812 L 64.066406 12.757812 C 62.128906 12.757812 60.558594 14.332031 60.558594 16.269531 L 60.558594 18.660156 L 26.511719 18.660156 C 19.199219 18.660156 13.25 24.617188 13.25 31.941406 L 13.25 211.660156 C 13.25 218.980469 19.199219 224.941406 26.511719 224.941406 L 176.726562 224.941406 C 184.039062 224.941406 189.992188 218.980469 189.992188 211.660156 L 189.992188 113.019531 L 220.984375 59.261719 C 224.5625 53.058594 222.433594 45.101562 216.238281 41.519531 Z M 201.320312 47.890625 C 202.683594 45.53125 205.421875 44.460938 207.9375 45.097656 L 158.765625 130.382812 L 155.007812 128.210938 Z M 153.726562 135.582031 L 162.863281 140.867188 L 153.726562 146.148438 Z M 176.726562 25.6875 C 180.171875 25.6875 182.972656 28.496094 182.972656 31.941406 L 182.972656 65.660156 L 176.421875 77.023438 L 176.421875 35.761719 C 176.421875 33.820312 174.851562 32.25 172.910156 32.25 L 142.683594 32.25 L 142.683594 25.6875 Z M 67.574219 19.785156 L 85.5 19.785156 C 87.121094 19.785156 88.53125 18.671875 88.910156 17.09375 C 90.332031 11.203125 95.554688 7.085938 101.617188 7.085938 C 107.683594 7.085938 112.90625 11.203125 114.328125 17.09375 C 114.707031 18.671875 116.117188 19.785156 117.738281 19.785156 L 135.664062 19.785156 L 135.664062 38.152344 L 67.574219 38.152344 Z M 139.171875 45.179688 C 141.109375 45.179688 142.683594 43.605469 142.683594 41.664062 L 142.683594 39.277344 L 169.402344 39.277344 L 169.402344 89.195312 L 147.179688 127.742188 C 146.871094 128.273438 146.707031 128.882812 146.707031 129.496094 L 146.707031 152.234375 C 146.707031 153.492188 147.375 154.652344 148.460938 155.277344 C 149.003906 155.59375 149.609375 155.75 150.21875 155.75 C 150.824219 155.75 151.429688 155.59375 151.972656 155.277344 L 169.402344 145.203125 L 169.402344 204.324219 L 33.835938 204.324219 L 33.835938 39.277344 L 60.554688 39.277344 L 60.554688 41.664062 C 60.554688 43.605469 62.128906 45.179688 64.066406 45.179688 Z M 182.972656 211.660156 C 182.972656 215.109375 180.171875 217.914062 176.726562 217.914062 L 26.511719 217.914062 C 23.066406 217.914062 20.265625 215.105469 20.265625 211.660156 L 20.265625 31.941406 C 20.265625 28.492188 23.070312 25.6875 26.511719 25.6875 L 60.554688 25.6875 L 60.554688 32.25 L 30.328125 32.25 C 28.390625 32.25 26.816406 33.824219 26.816406 35.761719 L 26.816406 207.839844 C 26.816406 209.78125 28.390625 211.351562 30.328125 211.351562 L 172.910156 211.351562 C 174.851562 211.351562 176.421875 209.78125 176.421875 207.839844 L 176.421875 136.554688 L 182.972656 125.191406 Z M 214.910156 55.746094 L 168.597656 136.066406 L 164.84375 133.894531 L 214.015625 48.613281 C 215.824219 50.476562 216.269531 53.386719 214.910156 55.746094 Z M 100.253906 85.324219 C 100.253906 83.382812 101.824219 81.808594 103.765625 81.808594 L 123.832031 81.808594 C 125.769531 81.808594 127.339844 83.382812 127.339844 85.324219 C 127.339844 87.265625 125.769531 88.839844 123.832031 88.839844 L 103.765625 88.839844 C 101.824219 88.839844 100.253906 87.265625 100.253906 85.324219 Z M 100.253906 70.007812 C 100.253906 68.066406 101.824219 66.492188 103.765625 66.492188 L 143.898438 66.492188 C 145.835938 66.492188 147.410156 68.066406 147.410156 70.007812 C 147.410156 71.945312 145.835938 73.519531 143.898438 73.519531 L 103.765625 73.519531 C 101.824219 73.519531 100.253906 71.945312 100.253906 70.007812 Z M 100.253906 128.269531 C 100.253906 126.332031 101.824219 124.757812 103.765625 124.757812 L 123.832031 124.757812 C 125.769531 124.757812 127.339844 126.332031 127.339844 128.269531 C 127.339844 130.210938 125.769531 131.785156 123.832031 131.785156 L 103.765625 131.785156 C 101.824219 131.785156 100.253906 130.210938 100.253906 128.269531 Z M 100.253906 112.953125 C 100.253906 111.011719 101.824219 109.4375 103.765625 109.4375 L 143.898438 109.4375 C 145.835938 109.4375 147.410156 111.011719 147.410156 112.953125 C 147.410156 114.894531 145.835938 116.464844 143.898438 116.464844 L 103.765625 116.464844 C 101.824219 116.464844 100.253906 114.894531 100.253906 112.953125 Z M 100.253906 180.9375 C 100.253906 178.996094 101.824219 177.421875 103.765625 177.421875 L 123.832031 177.421875 C 125.769531 177.421875 127.339844 178.996094 127.339844 180.9375 C 127.339844 182.875 125.769531 184.449219 123.832031 184.449219 L 103.765625 184.449219 C 101.824219 184.449219 100.253906 182.875 100.253906 180.9375 Z M 100.253906 165.617188 C 100.253906 163.679688 101.824219 162.105469 103.765625 162.105469 L 143.898438 162.105469 C 145.835938 162.105469 147.410156 163.679688 147.410156 165.617188 C 147.410156 167.558594 145.835938 169.132812 143.898438 169.132812 L 103.765625 169.132812 C 101.824219 169.132812 100.253906 167.558594 100.253906 165.617188 Z M 100.253906 165.617188 " fill-opacity="1" fill-rule="nonzero"/></g></svg>