<svg xmlns="http://www.w3.org/2000/svg" width="300" viewBox="0 0 224.88 225" height="300" version="1.0"><defs><clipPath id="a"><path d="M13.21.059H223v224.879H13.21zm0 0"/></clipPath></defs><g clip-path="url(#a)"><path d="M48.578 69.145v17.043c0 5.039 4.094 9.136 9.125 9.136h17.024c5.03 0 9.125-4.097 9.125-9.136v-10.75l10.07-9.149a3.522 3.522 0 0 0 .242-4.965 3.509 3.509 0 0 0-4.957-.242l-5.797 5.266c-1.18-3.676-4.625-6.344-8.683-6.344H57.703c-5.031 0-9.125 4.101-9.125 9.14zm28.254 0v3.183l-5.223 4.746-5.902-5.91a3.506 3.506 0 0 0-4.96 0 3.52 3.52 0 0 0 0 4.973l8.26 8.273a3.505 3.505 0 0 0 2.485 1.031c.844 0 1.688-.304 2.356-.914l2.984-2.71v4.37c0 1.145-.965 2.11-2.105 2.11H57.703c-1.144 0-2.11-.965-2.11-2.11V69.145c0-1.145.966-2.114 2.11-2.114h17.024c1.14 0 2.105.969 2.105 2.114zm12.375 39.746-5.797 5.265c-1.18-3.676-4.625-6.347-8.683-6.347H57.703c-5.031 0-9.125 4.101-9.125 9.14v17.043c0 5.04 4.094 9.14 9.125 9.14h17.024c5.03 0 9.125-4.1 9.125-9.14v-10.746l10.07-9.152a3.518 3.518 0 0 0 .238-4.965 3.5 3.5 0 0 0-4.953-.238zm-12.375 25.101c0 1.145-.965 2.113-2.105 2.113H57.703c-1.144 0-2.11-.968-2.11-2.113V116.95c0-1.144.966-2.11 2.11-2.11h17.024c1.14 0 2.105.966 2.105 2.11v3.184l-5.223 4.746-5.902-5.906a3.506 3.506 0 0 0-4.96 0 3.515 3.515 0 0 0 0 4.968l8.26 8.274a3.49 3.49 0 0 0 2.485 1.031c.844 0 1.688-.3 2.356-.914l2.984-2.71zm12.375 22.703-5.797 5.266c-1.18-3.676-4.625-6.344-8.683-6.344H57.703c-5.031 0-9.125 4.098-9.125 9.137V181.8c0 5.039 4.094 9.137 9.125 9.137h17.024c5.03 0 9.125-4.098 9.125-9.137v-10.75l10.07-9.153a3.513 3.513 0 0 0 .238-4.96 3.5 3.5 0 0 0-4.953-.243zm-12.375 25.106c0 1.14-.965 2.11-2.105 2.11H57.703c-1.144 0-2.11-.97-2.11-2.11v-17.047c0-1.145.966-2.11 2.11-2.11h17.024c1.14 0 2.105.965 2.105 2.11v3.184l-5.223 4.75-5.902-5.91a3.506 3.506 0 0 0-4.96 0 3.515 3.515 0 0 0 0 4.968l8.26 8.277a3.501 3.501 0 0 0 2.485 1.028c.844 0 1.688-.301 2.356-.91l2.984-2.715zm29.176-164.613a4.399 4.399 0 0 1-4.387 4.39 4.396 4.396 0 0 1-4.387-4.39 4.397 4.397 0 0 1 4.387-4.395 4.4 4.4 0 0 1 4.387 4.395zm110.23 24.332-3.277-1.895c-6.195-3.582-14.14-1.45-17.719 4.754l-5.254 9.11V31.94c0-7.324-5.949-13.28-13.261-13.28h-34.043v-2.388a3.515 3.515 0 0 0-3.512-3.515H120.3a20.022 20.022 0 0 0-18.684-12.7 20.021 20.021 0 0 0-18.68 12.7h-18.87a3.51 3.51 0 0 0-3.508 3.512v2.39H26.512c-7.313 0-13.262 5.957-13.262 13.281v179.72c0 7.32 5.95 13.28 13.262 13.28h150.215c7.312 0 13.265-5.96 13.265-13.28V113.02l30.992-53.758c3.578-6.203 1.45-14.16-4.746-17.742zm-14.918 6.37a5.96 5.96 0 0 1 6.618-2.792l-49.172 85.285-3.758-2.172zm-47.593 87.692 9.136 5.285-9.136 5.281zm23-109.894c3.445 0 6.246 2.808 6.246 6.253v33.72l-6.551 11.362V35.762a3.51 3.51 0 0 0-3.512-3.512h-30.226v-6.563zM67.574 19.785H85.5a3.509 3.509 0 0 0 3.41-2.691 13.035 13.035 0 0 1 12.707-10.008c6.067 0 11.29 4.117 12.711 10.008a3.509 3.509 0 0 0 3.41 2.691h17.926v18.367h-68.09zm71.598 25.395a3.515 3.515 0 0 0 3.512-3.516v-2.387h26.718v49.918l-22.222 38.547a3.504 3.504 0 0 0-.473 1.754v22.738c0 1.258.668 2.418 1.754 3.043a3.482 3.482 0 0 0 1.758.473c.605 0 1.21-.156 1.754-.473l17.43-10.074v59.121H33.835V39.277h26.719v2.387a3.515 3.515 0 0 0 3.511 3.516zm43.8 166.48c0 3.45-2.8 6.254-6.245 6.254H26.512c-3.446 0-6.246-2.809-6.246-6.254V31.941c0-3.449 2.804-6.253 6.246-6.253h34.043v6.562H30.328a3.514 3.514 0 0 0-3.512 3.512V207.84a3.512 3.512 0 0 0 3.512 3.512H172.91a3.51 3.51 0 0 0 3.512-3.512v-71.285l6.55-11.364zM214.91 55.746l-46.312 80.32-3.754-2.171 49.172-85.282c1.808 1.864 2.254 4.774.894 7.133zM100.254 85.324a3.513 3.513 0 0 1 3.512-3.515h20.066a3.512 3.512 0 0 1 3.508 3.515 3.512 3.512 0 0 1-3.508 3.516h-20.066a3.513 3.513 0 0 1-3.512-3.516zm0-15.316a3.513 3.513 0 0 1 3.512-3.516h40.132a3.514 3.514 0 0 1 0 7.027h-40.132a3.512 3.512 0 0 1-3.512-3.511zm0 58.262a3.512 3.512 0 0 1 3.512-3.512h20.066a3.51 3.51 0 0 1 3.508 3.512 3.512 3.512 0 0 1-3.508 3.515h-20.066a3.513 3.513 0 0 1-3.512-3.515zm0-15.317a3.513 3.513 0 0 1 3.512-3.516h40.132a3.515 3.515 0 0 1 3.512 3.516 3.512 3.512 0 0 1-3.512 3.512h-40.132a3.51 3.51 0 0 1-3.512-3.512zm0 67.984a3.513 3.513 0 0 1 3.512-3.515h20.066a3.512 3.512 0 0 1 3.508 3.516 3.51 3.51 0 0 1-3.508 3.511h-20.066a3.512 3.512 0 0 1-3.512-3.512zm0-15.32a3.512 3.512 0 0 1 3.512-3.512h40.132a3.514 3.514 0 0 1 0 7.028h-40.132a3.513 3.513 0 0 1-3.512-3.516zm0 0"/></g></svg>