<svg xmlns="http://www.w3.org/2000/svg" width="400" viewBox="0 0 300 225" height="300" version="1.0"><defs><clipPath id="a"><path d="M37.5 0h225v225h-225zm0 0"/></clipPath></defs><g clip-path="url(#a)"><path fill="#fff" d="M150 0C88 0 37.5 50.5 37.5 112.5S88 225 150 225s112.5-50.5 112.5-112.5S212 0 150 0zm0 22.5c49.84 0 90 40.16 90 90 0 45.164-33.016 82.27-76.29 88.86v-62.032h26.192l4.11-26.61H163.71V98.177c0-11.063 3.601-20.875 13.953-20.875h16.61V54.074c-2.922-.394-9.098-1.25-20.762-1.25-24.367 0-38.653 12.867-38.653 42.184v17.71h-25.047v26.61h25.047v61.809C92.29 193.96 60 157.164 60 112.5c0-49.84 40.16-90 90-90zm0 0"/></g></svg>