<svg xmlns="http://www.w3.org/2000/svg" width="300" viewBox="0 0 224.88 225" height="300" version="1.0"><defs><clipPath id="a"><path d="M0 .059h224.762v224.879H0zm0 0"/></clipPath></defs><g clip-path="url(#a)"><path fill="#f28a2e" d="M224.879 112.5c0 1.84-.043 3.68-.133 5.516-.094 1.84-.226 3.675-.406 5.504a111.357 111.357 0 0 1-1.621 10.918 115.12 115.12 0 0 1-1.207 5.382c-.45 1.785-.938 3.559-1.473 5.32a115.7 115.7 0 0 1-1.73 5.239 113.856 113.856 0 0 1-4.223 10.195 114.019 114.019 0 0 1-5.203 9.73 111.545 111.545 0 0 1-2.953 4.665 114.062 114.062 0 0 1-3.176 4.511 114.097 114.097 0 0 1-7 8.532 111.41 111.41 0 0 1-3.809 3.996c-1.3 1.3-2.632 2.57-3.996 3.804a113.87 113.87 0 0 1-8.527 7 115.854 115.854 0 0 1-4.512 3.18 115.649 115.649 0 0 1-9.465 5.672 111.773 111.773 0 0 1-4.93 2.48 118.614 118.614 0 0 1-5.046 2.239 112.665 112.665 0 0 1-10.39 3.715 108.07 108.07 0 0 1-5.317 1.472c-1.785.446-3.582.852-5.387 1.211-1.805.356-3.617.672-5.438.942a112.042 112.042 0 0 1-10.98 1.082c-1.836.09-3.676.136-5.516.136a113.152 113.152 0 0 1-11.023-.543c-1.832-.18-3.656-.406-5.477-.675-1.82-.27-3.632-.586-5.437-.942a114.045 114.045 0 0 1-10.703-2.683 112.666 112.666 0 0 1-10.39-3.715 116.31 116.31 0 0 1-5.044-2.238 109.654 109.654 0 0 1-4.93-2.48 112.827 112.827 0 0 1-9.465-5.672 110.198 110.198 0 0 1-4.511-3.18 111.004 111.004 0 0 1-8.531-7 111.3 111.3 0 0 1-3.996-3.805c-1.301-1.301-2.57-2.633-3.805-3.996a111 111 0 0 1-7-8.532 111.544 111.544 0 0 1-8.852-13.977 109.655 109.655 0 0 1-2.48-4.929 107.653 107.653 0 0 1-2.238-5.047c-.704-1.699-1.368-3.414-1.985-5.148-.62-1.73-1.199-3.477-1.734-5.238a114.012 114.012 0 0 1-2.68-10.703A111.33 111.33 0 0 1 1.22 129c-.274-1.82-.496-3.648-.676-5.48A112.87 112.87 0 0 1 0 112.5a112.87 112.87 0 0 1 2.16-21.938A114.012 114.012 0 0 1 4.84 79.86a111.053 111.053 0 0 1 1.734-5.238c.617-1.734 1.281-3.45 1.985-5.148.703-1.703 1.449-3.383 2.238-5.047a109.655 109.655 0 0 1 2.48-4.93A111.544 111.544 0 0 1 22.13 45.52a111 111 0 0 1 7-8.531 111.301 111.301 0 0 1 3.805-3.996 111.3 111.3 0 0 1 3.996-3.804 111.004 111.004 0 0 1 8.531-7 110.198 110.198 0 0 1 9.172-6.13c1.578-.949 3.18-1.855 4.804-2.722a109.654 109.654 0 0 1 4.93-2.48 116.31 116.31 0 0 1 5.043-2.239A112.666 112.666 0 0 1 85.12 3.43c1.782-.445 3.58-.85 5.384-1.21 1.805-.356 3.617-.672 5.437-.942a112.042 112.042 0 0 1 10.98-1.082c1.84-.09 3.68-.136 5.52-.136a112.87 112.87 0 0 1 21.934 2.16c1.805.36 3.602.765 5.387 1.21 1.785.446 3.558.938 5.316 1.473a112.665 112.665 0 0 1 10.39 3.715c1.7.707 3.384 1.453 5.048 2.238a111.773 111.773 0 0 1 9.73 5.204c1.578.945 3.133 1.93 4.664 2.949a115.854 115.854 0 0 1 4.512 3.18 113.87 113.87 0 0 1 8.527 7 111.301 111.301 0 0 1 3.996 3.804 110.897 110.897 0 0 1 7.41 8.176c1.168 1.422 2.301 2.875 3.399 4.352a114.062 114.062 0 0 1 3.176 4.511 111.545 111.545 0 0 1 5.672 9.465 114.019 114.019 0 0 1 2.484 4.93 113.856 113.856 0 0 1 4.223 10.195 115.7 115.7 0 0 1 1.73 5.238 114.056 114.056 0 0 1 1.473 5.32 115.12 115.12 0 0 1 1.207 5.383 111.357 111.357 0 0 1 1.62 10.918c.18 1.829.313 3.665.407 5.504.09 1.836.133 3.676.133 5.516zm0 0"/></g><path d="M88.026 152.604H77.792l29.61-80.61h10.078l29.593 80.61H136.84l-8.11-22.829H96.137zm11.188-31.485h26.453l-12.922-36.375h-.625zm0 0" fill="#fff"/></svg>