<svg xmlns="http://www.w3.org/2000/svg" xmlns:xlink="http://www.w3.org/1999/xlink" width="400" zoomAndPan="magnify" viewBox="0 0 300 225" height="300" preserveAspectRatio="xMidYMid meet" version="1.0"><defs><clipPath id="1a23daa4a4"><path d="M 37.5 0 L 262.5 0 L 262.5 225 L 37.5 225 Z M 37.5 0 " clip-rule="nonzero"/></clipPath></defs><g clip-path="url(#1a23daa4a4)"><path fill="#ffffff" d="M 150 0 C 88 0 37.5 50.5 37.5 112.5 C 37.5 174.5 88 225 150 225 C 212 225 262.5 174.5 262.5 112.5 C 262.5 50.5 212 0 150 0 Z M 150 22.5 C 199.839844 22.5 240 62.660156 240 112.5 C 240 157.664062 206.984375 194.769531 163.710938 201.359375 L 163.710938 139.328125 L 189.902344 139.328125 L 194.011719 112.71875 L 163.710938 112.71875 L 163.710938 98.175781 C 163.710938 87.113281 167.3125 77.300781 177.664062 77.300781 L 194.273438 77.300781 L 194.273438 54.074219 C 191.351562 53.679688 185.175781 52.824219 173.511719 52.824219 C 149.144531 52.824219 134.859375 65.691406 134.859375 95.007812 L 134.859375 112.71875 L 109.8125 112.71875 L 109.8125 139.328125 L 134.859375 139.328125 L 134.859375 201.136719 C 92.289062 193.960938 60 157.164062 60 112.5 C 60 62.660156 100.160156 22.5 150 22.5 Z M 150 22.5 " fill-opacity="1" fill-rule="nonzero"/></g></svg>