<svg xmlns="http://www.w3.org/2000/svg" xmlns:xlink="http://www.w3.org/1999/xlink" width="300" zoomAndPan="magnify" viewBox="0 0 224.87999 225" height="300" preserveAspectRatio="xMidYMid meet" version="1.0"><defs><clipPath id="1e1b0a2feb"><path d="M 0 0.0585938 L 224.761719 0.0585938 L 224.761719 224.9375 L 0 224.9375 Z M 0 0.0585938 " clip-rule="nonzero"/></clipPath></defs><g clip-path="url(#1e1b0a2feb)"><path fill="#20ab4b" d="M 224.890625 112.5 C 224.890625 114.339844 224.84375 116.179688 224.753906 118.019531 C 224.664062 119.855469 224.53125 121.691406 224.347656 123.523438 C 224.167969 125.355469 223.945312 127.179688 223.671875 129 C 223.402344 130.820312 223.089844 132.632812 222.730469 134.4375 C 222.371094 136.242188 221.96875 138.039062 221.519531 139.824219 C 221.074219 141.609375 220.582031 143.382812 220.046875 145.144531 C 219.515625 146.902344 218.9375 148.652344 218.316406 150.382812 C 217.699219 152.117188 217.035156 153.832031 216.332031 155.53125 C 215.625 157.234375 214.882812 158.914062 214.09375 160.578125 C 213.308594 162.242188 212.480469 163.886719 211.613281 165.507812 C 210.746094 167.132812 209.839844 168.734375 208.890625 170.3125 C 207.945312 171.890625 206.960938 173.445312 205.9375 174.972656 C 204.917969 176.503906 203.859375 178.007812 202.761719 179.488281 C 201.664062 180.964844 200.53125 182.414062 199.367188 183.839844 C 198.199219 185.261719 196.996094 186.652344 195.761719 188.015625 C 194.523438 189.382812 193.257812 190.714844 191.953125 192.015625 C 190.652344 193.316406 189.320312 194.585938 187.957031 195.820312 C 186.59375 197.054688 185.199219 198.257812 183.777344 199.425781 C 182.355469 200.59375 180.90625 201.726562 179.425781 202.820312 C 177.949219 203.917969 176.445312 204.976562 174.914062 206 C 173.382812 207.023438 171.828125 208.007812 170.25 208.953125 C 168.671875 209.898438 167.070312 210.804688 165.449219 211.671875 C 163.824219 212.539062 162.183594 213.367188 160.519531 214.152344 C 158.855469 214.941406 157.171875 215.6875 155.472656 216.390625 C 153.773438 217.09375 152.054688 217.757812 150.324219 218.378906 C 148.589844 218.996094 146.84375 219.574219 145.082031 220.109375 C 143.320312 220.644531 141.546875 221.132812 139.761719 221.582031 C 137.976562 222.027344 136.183594 222.429688 134.378906 222.789062 C 132.574219 223.148438 130.761719 223.464844 128.941406 223.734375 C 127.121094 224.003906 125.292969 224.230469 123.460938 224.410156 C 121.628906 224.589844 119.796875 224.726562 117.957031 224.816406 C 116.121094 224.90625 114.28125 224.949219 112.441406 224.949219 C 110.601562 224.949219 108.761719 224.90625 106.921875 224.816406 C 105.085938 224.726562 103.25 224.589844 101.417969 224.410156 C 99.585938 224.230469 97.761719 224.003906 95.941406 223.734375 C 94.121094 223.464844 92.308594 223.148438 90.5 222.789062 C 88.695312 222.429688 86.902344 222.027344 85.117188 221.582031 C 83.332031 221.132812 81.558594 220.644531 79.796875 220.109375 C 78.035156 219.574219 76.289062 218.996094 74.554688 218.378906 C 72.824219 217.757812 71.105469 217.09375 69.40625 216.390625 C 67.707031 215.6875 66.023438 214.941406 64.359375 214.152344 C 62.699219 213.367188 61.054688 212.539062 59.429688 211.671875 C 57.808594 210.804688 56.207031 209.898438 54.628906 208.953125 C 53.050781 208.007812 51.496094 207.023438 49.964844 206 C 48.433594 204.976562 46.929688 203.917969 45.453125 202.820312 C 43.976562 201.726562 42.523438 200.59375 41.101562 199.425781 C 39.679688 198.257812 38.285156 197.054688 36.921875 195.820312 C 35.558594 194.585938 34.226562 193.316406 32.925781 192.015625 C 31.625 190.714844 30.355469 189.382812 29.121094 188.015625 C 27.882812 186.652344 26.683594 185.261719 25.515625 183.839844 C 24.347656 182.414062 23.214844 180.964844 22.117188 179.488281 C 21.023438 178.007812 19.964844 176.503906 18.941406 174.972656 C 17.917969 173.445312 16.933594 171.890625 15.988281 170.3125 C 15.042969 168.734375 14.136719 167.132812 13.265625 165.507812 C 12.398438 163.886719 11.574219 162.242188 10.785156 160.578125 C 10 158.914062 9.253906 157.234375 8.550781 155.53125 C 7.84375 153.832031 7.183594 152.117188 6.5625 150.382812 C 5.941406 148.652344 5.367188 146.902344 4.832031 145.144531 C 4.296875 143.382812 3.804688 141.609375 3.359375 139.824219 C 2.914062 138.039062 2.507812 136.242188 2.148438 134.4375 C 1.789062 132.632812 1.476562 130.820312 1.207031 129 C 0.9375 127.179688 0.710938 125.355469 0.53125 123.523438 C 0.351562 121.691406 0.214844 119.855469 0.125 118.019531 C 0.0351562 116.179688 -0.0117188 114.339844 -0.0117188 112.5 C -0.0117188 110.660156 0.0351562 108.820312 0.125 106.980469 C 0.214844 105.144531 0.351562 103.308594 0.53125 101.476562 C 0.710938 99.644531 0.9375 97.820312 1.207031 96 C 1.476562 94.179688 1.789062 92.367188 2.148438 90.5625 C 2.507812 88.757812 2.914062 86.960938 3.359375 85.175781 C 3.804688 83.390625 4.296875 81.617188 4.832031 79.855469 C 5.367188 78.097656 5.941406 76.347656 6.5625 74.617188 C 7.183594 72.882812 7.84375 71.167969 8.550781 69.46875 C 9.253906 67.765625 10 66.085938 10.785156 64.421875 C 11.574219 62.757812 12.398438 61.113281 13.265625 59.492188 C 14.136719 57.867188 15.042969 56.265625 15.988281 54.6875 C 16.933594 53.109375 17.917969 51.554688 18.941406 50.027344 C 19.964844 48.496094 21.023438 46.992188 22.117188 45.511719 C 23.214844 44.035156 24.347656 42.585938 25.515625 41.160156 C 26.683594 39.738281 27.882812 38.347656 29.121094 36.984375 C 30.355469 35.617188 31.625 34.285156 32.925781 32.984375 C 34.226562 31.683594 35.558594 30.414062 36.921875 29.179688 C 38.285156 27.945312 39.679688 26.742188 41.101562 25.574219 C 42.523438 24.40625 43.976562 23.273438 45.453125 22.179688 C 46.929688 21.082031 48.433594 20.023438 49.964844 19 C 51.496094 17.976562 53.050781 16.992188 54.628906 16.046875 C 56.207031 15.101562 57.808594 14.195312 59.429688 13.328125 C 61.054688 12.460938 62.699219 11.632812 64.359375 10.847656 C 66.023438 10.058594 67.707031 9.3125 69.40625 8.609375 C 71.105469 7.90625 72.824219 7.242188 74.554688 6.621094 C 76.289062 6.003906 78.035156 5.425781 79.796875 4.890625 C 81.558594 4.355469 83.332031 3.867188 85.117188 3.417969 C 86.902344 2.972656 88.695312 2.570312 90.5 2.210938 C 92.308594 1.851562 94.121094 1.535156 95.941406 1.265625 C 97.761719 0.996094 99.585938 0.769531 101.417969 0.589844 C 103.25 0.410156 105.085938 0.273438 106.921875 0.183594 C 108.761719 0.09375 110.601562 0.0507812 112.441406 0.0507812 C 114.28125 0.0507812 116.121094 0.09375 117.957031 0.183594 C 119.796875 0.273438 121.628906 0.410156 123.460938 0.589844 C 125.292969 0.769531 127.121094 0.996094 128.941406 1.265625 C 130.761719 1.535156 132.574219 1.851562 134.378906 2.210938 C 136.183594 2.570312 137.976562 2.972656 139.761719 3.417969 C 141.546875 3.867188 143.320312 4.355469 145.082031 4.890625 C 146.84375 5.425781 148.589844 6.003906 150.324219 6.621094 C 152.054688 7.242188 153.773438 7.90625 155.472656 8.609375 C 157.171875 9.3125 158.855469 10.058594 160.519531 10.847656 C 162.183594 11.632812 163.824219 12.460938 165.449219 13.328125 C 167.070312 14.195312 168.671875 15.101562 170.25 16.046875 C 171.828125 16.992188 173.382812 17.976562 174.914062 19 C 176.445312 20.023438 177.949219 21.082031 179.425781 22.179688 C 180.90625 23.273438 182.355469 24.40625 183.777344 25.574219 C 185.199219 26.742188 186.59375 27.945312 187.957031 29.179688 C 189.320312 30.414062 190.652344 31.683594 191.953125 32.984375 C 193.257812 34.285156 194.523438 35.617188 195.761719 36.984375 C 196.996094 38.347656 198.199219 39.738281 199.367188 41.160156 C 200.53125 42.585938 201.664062 44.035156 202.761719 45.511719 C 203.859375 46.992188 204.917969 48.496094 205.9375 50.027344 C 206.960938 51.554688 207.945312 53.109375 208.890625 54.6875 C 209.839844 56.265625 210.746094 57.867188 211.613281 59.492188 C 212.480469 61.113281 213.308594 62.757812 214.09375 64.421875 C 214.882812 66.085938 215.625 67.765625 216.332031 69.46875 C 217.035156 71.167969 217.695312 72.882812 218.316406 74.617188 C 218.9375 76.347656 219.515625 78.097656 220.046875 79.855469 C 220.582031 81.617188 221.074219 83.390625 221.519531 85.175781 C 221.96875 86.960938 222.371094 88.757812 222.730469 90.5625 C 223.089844 92.367188 223.402344 94.179688 223.671875 96 C 223.945312 97.820312 224.167969 99.644531 224.347656 101.476562 C 224.53125 103.308594 224.664062 105.144531 224.753906 106.980469 C 224.84375 108.820312 224.890625 110.660156 224.890625 112.5 Z M 224.890625 112.5 " fill-opacity="1" fill-rule="nonzero"/></g><path fill="#ffffff" d="M 112.441406 181.597656 C 106.414062 181.605469 100.492188 180.835938 94.667969 179.289062 C 88.847656 177.738281 83.324219 175.46875 78.097656 172.472656 L 45.878906 181.101562 L 54.265625 149.800781 C 53.582031 148.734375 52.925781 147.648438 52.300781 146.542969 C 51.679688 145.441406 51.085938 144.320312 50.519531 143.1875 C 49.957031 142.050781 49.425781 140.898438 48.925781 139.734375 C 48.425781 138.570312 47.960938 137.390625 47.523438 136.199219 C 47.089844 135.007812 46.6875 133.808594 46.320312 132.59375 C 45.949219 131.382812 45.617188 130.160156 45.3125 128.925781 C 45.011719 127.695312 44.746094 126.457031 44.511719 125.210938 C 44.277344 123.964844 44.078125 122.710938 43.914062 121.457031 C 43.75 120.199219 43.621094 118.9375 43.527344 117.671875 C 43.429688 116.410156 43.371094 115.144531 43.34375 113.875 C 43.320312 112.609375 43.328125 111.339844 43.375 110.074219 C 43.417969 108.804688 43.496094 107.542969 43.613281 106.277344 C 43.726562 105.015625 43.875 103.757812 44.058594 102.503906 C 44.242188 101.25 44.460938 100 44.710938 98.757812 C 44.964844 97.515625 45.25 96.28125 45.570312 95.054688 C 45.890625 93.828125 46.242188 92.609375 46.628906 91.402344 C 47.015625 90.195312 47.4375 89 47.890625 87.816406 C 48.34375 86.628906 48.828125 85.460938 49.34375 84.300781 C 49.863281 83.144531 50.410156 82.003906 50.992188 80.875 C 51.570312 79.746094 52.179688 78.636719 52.824219 77.542969 C 53.464844 76.449219 54.132812 75.375 54.835938 74.316406 C 55.535156 73.261719 56.265625 72.222656 57.023438 71.207031 C 57.78125 70.191406 58.566406 69.195312 59.375 68.222656 C 60.1875 67.25 61.027344 66.296875 61.890625 65.371094 C 62.757812 64.445312 63.644531 63.539062 64.558594 62.664062 C 65.476562 61.785156 66.414062 60.929688 67.375 60.105469 C 68.335938 59.277344 69.316406 58.476562 70.324219 57.707031 C 71.328125 56.933594 72.355469 56.1875 73.398438 55.472656 C 74.445312 54.757812 75.511719 54.070312 76.59375 53.410156 C 77.679688 52.753906 78.78125 52.128906 79.898438 51.53125 C 81.019531 50.933594 82.152344 50.367188 83.300781 49.832031 C 84.453125 49.296875 85.613281 48.796875 86.792969 48.324219 C 87.96875 47.855469 89.160156 47.417969 90.359375 47.011719 C 91.5625 46.605469 92.773438 46.234375 93.996094 45.898438 C 95.21875 45.558594 96.449219 45.253906 97.6875 44.984375 C 98.925781 44.714844 100.167969 44.476562 101.421875 44.273438 C 102.671875 44.074219 103.929688 43.90625 105.191406 43.773438 C 106.449219 43.640625 107.714844 43.539062 108.980469 43.476562 C 110.246094 43.414062 111.515625 43.386719 112.78125 43.390625 C 114.050781 43.398438 115.316406 43.441406 116.582031 43.515625 C 117.847656 43.589844 119.109375 43.703125 120.371094 43.847656 C 121.628906 43.992188 122.882812 44.171875 124.132812 44.386719 C 125.382812 44.601562 126.625 44.851562 127.859375 45.132812 C 129.097656 45.417969 130.324219 45.734375 131.542969 46.085938 C 132.761719 46.433594 133.96875 46.820312 135.167969 47.234375 C 136.363281 47.652344 137.546875 48.101562 138.722656 48.585938 C 139.894531 49.066406 141.050781 49.582031 142.195312 50.128906 C 143.339844 50.671875 144.46875 51.25 145.582031 51.859375 C 146.695312 52.46875 147.789062 53.105469 148.867188 53.773438 C 149.945312 54.441406 151 55.140625 152.039062 55.867188 C 153.078125 56.59375 154.097656 57.347656 155.09375 58.128906 C 156.09375 58.914062 157.066406 59.722656 158.019531 60.558594 C 158.972656 61.394531 159.902344 62.257812 160.808594 63.144531 C 161.714844 64.03125 162.59375 64.945312 163.449219 65.878906 C 164.304688 66.816406 165.132812 67.773438 165.9375 68.753906 C 166.738281 69.738281 167.511719 70.738281 168.261719 71.765625 C 169.007812 72.789062 169.726562 73.832031 170.417969 74.894531 C 171.105469 75.960938 171.765625 77.042969 172.394531 78.140625 C 173.027344 79.242188 173.625 80.359375 174.195312 81.492188 C 174.765625 82.625 175.300781 83.773438 175.808594 84.933594 C 176.3125 86.097656 176.785156 87.273438 177.226562 88.460938 C 177.667969 89.652344 178.074219 90.851562 178.449219 92.0625 C 178.824219 93.273438 179.167969 94.492188 179.472656 95.722656 C 179.78125 96.953125 180.054688 98.191406 180.296875 99.4375 C 180.535156 100.679688 180.738281 101.933594 180.910156 103.1875 C 181.082031 104.445312 181.21875 105.703125 181.320312 106.96875 C 181.421875 108.230469 181.488281 109.496094 181.519531 110.765625 C 181.550781 112.03125 181.546875 113.300781 181.507812 114.566406 C 181.472656 115.835938 181.398438 117.101562 181.289062 118.363281 C 181.183594 119.625 181.039062 120.886719 180.863281 122.140625 C 180.6875 123.398438 180.476562 124.644531 180.230469 125.890625 C 179.984375 127.132812 179.703125 128.371094 179.390625 129.597656 C 179.078125 130.828125 178.730469 132.046875 178.347656 133.253906 C 177.96875 134.464844 177.554688 135.660156 177.105469 136.847656 C 176.660156 138.035156 176.179688 139.207031 175.667969 140.367188 C 175.15625 141.527344 174.617188 142.671875 174.039062 143.804688 C 173.464844 144.933594 172.863281 146.046875 172.226562 147.144531 C 171.589844 148.242188 170.925781 149.320312 170.230469 150.378906 C 169.535156 151.441406 168.8125 152.480469 168.058594 153.503906 C 167.304688 154.523438 166.527344 155.523438 165.71875 156.5 C 164.910156 157.476562 164.078125 158.429688 163.21875 159.363281 C 162.359375 160.292969 161.472656 161.203125 160.5625 162.085938 C 159.652344 162.96875 158.71875 163.824219 157.761719 164.65625 C 156.804688 165.488281 155.828125 166.292969 154.824219 167.070312 C 153.824219 167.847656 152.800781 168.597656 151.761719 169.320312 C 150.71875 170.042969 149.65625 170.734375 148.574219 171.398438 C 147.496094 172.058594 146.394531 172.691406 145.28125 173.296875 C 144.164062 173.898438 143.035156 174.46875 141.886719 175.007812 C 140.742188 175.550781 139.578125 176.058594 138.40625 176.535156 C 137.230469 177.011719 136.042969 177.453125 134.84375 177.867188 C 133.644531 178.277344 132.433594 178.65625 131.214844 179 C 129.992188 179.34375 128.765625 179.65625 127.527344 179.929688 C 126.289062 180.207031 125.046875 180.449219 123.796875 180.660156 C 122.546875 180.867188 121.289062 181.042969 120.03125 181.179688 C 118.769531 181.320312 117.507812 181.425781 116.242188 181.496094 C 114.976562 181.5625 113.707031 181.597656 112.441406 181.597656 Z M 80.433594 156.703125 L 83.148438 158.4375 C 84.089844 159.039062 85.050781 159.609375 86.027344 160.152344 C 87.003906 160.695312 87.996094 161.207031 89.003906 161.6875 C 90.011719 162.167969 91.035156 162.617188 92.070312 163.035156 C 93.105469 163.453125 94.152344 163.835938 95.214844 164.191406 C 96.273438 164.542969 97.34375 164.863281 98.421875 165.152344 C 99.5 165.441406 100.589844 165.695312 101.683594 165.914062 C 102.777344 166.136719 103.878906 166.324219 104.984375 166.476562 C 106.089844 166.628906 107.203125 166.746094 108.316406 166.832031 C 109.429688 166.917969 110.542969 166.96875 111.660156 166.984375 C 112.777344 167 113.894531 166.984375 115.011719 166.929688 C 116.125 166.878906 117.238281 166.792969 118.347656 166.671875 C 119.460938 166.550781 120.566406 166.394531 121.667969 166.207031 C 122.765625 166.015625 123.859375 165.796875 124.949219 165.539062 C 126.035156 165.28125 127.113281 164.992188 128.183594 164.671875 C 129.253906 164.347656 130.3125 163.996094 131.359375 163.605469 C 132.40625 163.21875 133.441406 162.800781 134.460938 162.347656 C 135.484375 161.898438 136.492188 161.414062 137.484375 160.902344 C 138.476562 160.390625 139.453125 159.847656 140.410156 159.273438 C 141.367188 158.699219 142.308594 158.097656 143.230469 157.46875 C 144.152344 156.835938 145.054688 156.179688 145.9375 155.492188 C 146.816406 154.808594 147.675781 154.09375 148.515625 153.355469 C 149.351562 152.617188 150.164062 151.851562 150.957031 151.0625 C 151.746094 150.273438 152.511719 149.460938 153.253906 148.625 C 153.992188 147.789062 154.707031 146.929688 155.394531 146.050781 C 156.082031 145.171875 156.742188 144.269531 157.375 143.347656 C 158.007812 142.429688 158.609375 141.488281 159.1875 140.53125 C 159.761719 139.574219 160.304688 138.597656 160.820312 137.609375 C 161.335938 136.617188 161.816406 135.609375 162.269531 134.589844 C 162.722656 133.566406 163.144531 132.535156 163.535156 131.488281 C 163.921875 130.441406 164.28125 129.382812 164.605469 128.3125 C 164.929688 127.246094 165.21875 126.167969 165.476562 125.082031 C 165.734375 123.992188 165.960938 122.898438 166.152344 121.800781 C 166.339844 120.699219 166.5 119.59375 166.621094 118.484375 C 166.742188 117.375 166.832031 116.261719 166.886719 115.144531 C 166.941406 114.027344 166.960938 112.914062 166.945312 111.796875 C 166.933594 110.679688 166.882812 109.5625 166.800781 108.449219 C 166.71875 107.335938 166.601562 106.226562 166.449219 105.117188 C 166.296875 104.011719 166.113281 102.910156 165.894531 101.816406 C 165.675781 100.71875 165.421875 99.632812 165.136719 98.554688 C 164.851562 97.472656 164.53125 96.402344 164.179688 95.34375 C 163.828125 94.285156 163.445312 93.234375 163.03125 92.199219 C 162.613281 91.160156 162.167969 90.140625 161.6875 89.128906 C 161.207031 88.121094 160.699219 87.128906 160.160156 86.148438 C 159.617188 85.171875 159.050781 84.210938 158.449219 83.269531 C 157.851562 82.324219 157.222656 81.402344 156.566406 80.5 C 155.914062 79.59375 155.230469 78.710938 154.519531 77.847656 C 153.808594 76.988281 153.074219 76.148438 152.3125 75.332031 C 151.550781 74.511719 150.761719 73.722656 149.953125 72.953125 C 149.140625 72.183594 148.308594 71.441406 147.453125 70.722656 C 146.597656 70.007812 145.71875 69.316406 144.820312 68.652344 C 143.921875 67.988281 143.003906 67.355469 142.066406 66.746094 C 141.128906 66.140625 140.171875 65.5625 139.199219 65.015625 C 138.226562 64.464844 137.238281 63.949219 136.234375 63.460938 C 135.226562 62.972656 134.207031 62.519531 133.175781 62.09375 C 132.140625 61.667969 131.097656 61.277344 130.039062 60.914062 C 128.984375 60.554688 127.914062 60.226562 126.839844 59.933594 C 125.761719 59.636719 124.675781 59.375 123.582031 59.148438 C 122.488281 58.921875 121.390625 58.726562 120.285156 58.566406 C 119.179688 58.40625 118.070312 58.277344 116.957031 58.1875 C 115.84375 58.09375 114.726562 58.035156 113.613281 58.011719 C 112.496094 57.988281 111.378906 58 110.261719 58.042969 C 109.144531 58.089844 108.03125 58.167969 106.921875 58.28125 C 105.808594 58.394531 104.703125 58.542969 103.601562 58.726562 C 102.5 58.90625 101.402344 59.121094 100.316406 59.371094 C 99.226562 59.621094 98.144531 59.902344 97.074219 60.214844 C 96.003906 60.53125 94.941406 60.878906 93.890625 61.261719 C 92.84375 61.640625 91.804688 62.054688 90.78125 62.496094 C 89.753906 62.941406 88.746094 63.417969 87.75 63.921875 C 86.753906 64.429688 85.773438 64.964844 84.8125 65.53125 C 83.847656 66.097656 82.90625 66.695312 81.980469 67.320312 C 81.054688 67.945312 80.148438 68.597656 79.261719 69.277344 C 78.375 69.957031 77.511719 70.664062 76.667969 71.398438 C 75.828125 72.132812 75.007812 72.890625 74.210938 73.675781 C 73.417969 74.457031 72.644531 75.265625 71.898438 76.097656 C 71.152344 76.929688 70.433594 77.78125 69.738281 78.65625 C 69.046875 79.53125 68.378906 80.429688 67.742188 81.34375 C 67.105469 82.261719 66.492188 83.195312 65.914062 84.152344 C 65.332031 85.105469 64.78125 86.074219 64.257812 87.0625 C 63.738281 88.050781 63.246094 89.054688 62.789062 90.074219 C 62.328125 91.089844 61.902344 92.121094 61.503906 93.164062 C 61.109375 94.210938 60.746094 95.265625 60.414062 96.332031 C 60.082031 97.398438 59.785156 98.476562 59.519531 99.558594 C 59.253906 100.644531 59.023438 101.738281 58.824219 102.835938 C 58.625 103.9375 58.460938 105.039062 58.332031 106.148438 C 58.203125 107.257812 58.105469 108.371094 58.042969 109.484375 C 57.984375 110.601562 57.957031 111.71875 57.960938 112.835938 C 57.96875 113.953125 58.011719 115.066406 58.085938 116.179688 C 58.160156 117.296875 58.269531 118.40625 58.414062 119.515625 C 58.558594 120.621094 58.738281 121.722656 58.949219 122.820312 C 59.160156 123.917969 59.40625 125.007812 59.683594 126.089844 C 59.960938 127.171875 60.273438 128.242188 60.617188 129.304688 C 60.964844 130.367188 61.339844 131.417969 61.75 132.457031 C 62.160156 133.496094 62.597656 134.523438 63.070312 135.535156 C 63.542969 136.546875 64.046875 137.542969 64.578125 138.523438 C 65.113281 139.507812 65.675781 140.46875 66.269531 141.417969 C 66.863281 142.363281 67.484375 143.292969 68.132812 144.199219 L 70.148438 147.011719 L 66.554688 160.421875 Z M 80.433594 156.703125 " fill-opacity="1" fill-rule="nonzero"/><path fill="#20ab4b" d="M 112.441406 50.710938 C 109.613281 50.710938 106.800781 50.90625 104 51.292969 C 101.203125 51.675781 98.441406 52.253906 95.722656 53.019531 C 93 53.78125 90.34375 54.730469 87.753906 55.859375 C 85.164062 56.988281 82.664062 58.289062 80.25 59.761719 C 77.839844 61.234375 75.539062 62.863281 73.347656 64.652344 C 71.160156 66.441406 69.105469 68.367188 67.179688 70.4375 C 65.257812 72.507812 63.484375 74.699219 61.859375 77.015625 C 60.238281 79.328125 58.78125 81.742188 57.488281 84.253906 C 56.195312 86.769531 55.082031 89.359375 54.144531 92.023438 C 53.207031 94.691406 52.457031 97.40625 51.894531 100.175781 C 51.332031 102.945312 50.957031 105.742188 50.777344 108.5625 C 50.597656 111.382812 50.609375 114.199219 50.816406 117.019531 C 51.023438 119.839844 51.421875 122.628906 52.011719 125.394531 C 52.601562 128.15625 53.375 130.867188 54.339844 133.523438 C 55.300781 136.183594 56.4375 138.761719 57.753906 141.261719 C 59.070312 143.765625 60.546875 146.164062 62.191406 148.460938 L 56.21875 170.761719 L 79.214844 164.601562 C 80.222656 165.242188 81.246094 165.855469 82.289062 166.4375 C 83.332031 167.023438 84.390625 167.574219 85.464844 168.09375 C 86.539062 168.617188 87.628906 169.105469 88.730469 169.5625 C 89.832031 170.023438 90.949219 170.449219 92.074219 170.839844 C 93.203125 171.234375 94.339844 171.59375 95.488281 171.921875 C 96.636719 172.25 97.792969 172.542969 98.957031 172.804688 C 100.125 173.066406 101.296875 173.292969 102.472656 173.484375 C 103.652344 173.675781 104.835938 173.835938 106.023438 173.960938 C 107.210938 174.082031 108.402344 174.171875 109.59375 174.226562 C 110.785156 174.285156 111.980469 174.304688 113.175781 174.289062 C 114.367188 174.273438 115.5625 174.226562 116.753906 174.144531 C 117.941406 174.058594 119.132812 173.941406 120.316406 173.789062 C 121.5 173.636719 122.679688 173.453125 123.851562 173.230469 C 125.027344 173.011719 126.191406 172.753906 127.351562 172.46875 C 128.507812 172.179688 129.660156 171.859375 130.800781 171.503906 C 131.9375 171.148438 133.066406 170.761719 134.1875 170.339844 C 135.304688 169.921875 136.40625 169.46875 137.5 168.984375 C 138.589844 168.5 139.667969 167.984375 140.730469 167.4375 C 141.789062 166.890625 142.835938 166.3125 143.863281 165.707031 C 144.890625 165.097656 145.902344 164.460938 146.894531 163.796875 C 147.882812 163.132812 148.855469 162.4375 149.804688 161.714844 C 150.757812 160.992188 151.6875 160.242188 152.59375 159.46875 C 153.5 158.691406 154.386719 157.890625 155.246094 157.0625 C 156.109375 156.234375 156.945312 155.382812 157.757812 154.507812 C 158.566406 153.632812 159.355469 152.734375 160.113281 151.8125 C 160.875 150.890625 161.605469 149.949219 162.308594 148.984375 C 163.015625 148.023438 163.691406 147.039062 164.339844 146.035156 C 164.988281 145.03125 165.605469 144.011719 166.195312 142.972656 C 166.785156 141.933594 167.34375 140.878906 167.871094 139.808594 C 168.398438 138.738281 168.894531 137.652344 169.359375 136.550781 C 169.824219 135.453125 170.253906 134.339844 170.65625 133.214844 C 171.054688 132.089844 171.421875 130.953125 171.757812 129.808594 C 172.09375 128.660156 172.394531 127.507812 172.660156 126.34375 C 172.929688 125.179688 173.160156 124.007812 173.359375 122.832031 C 173.5625 121.652344 173.726562 120.472656 173.855469 119.285156 C 173.988281 118.097656 174.085938 116.90625 174.148438 115.714844 C 174.207031 114.523438 174.234375 113.328125 174.230469 112.136719 C 174.222656 110.941406 174.179688 109.75 174.105469 108.558594 C 174.027344 107.367188 173.917969 106.175781 173.773438 104.992188 C 173.625 103.804688 173.449219 102.625 173.234375 101.453125 C 173.019531 100.277344 172.773438 99.109375 172.492188 97.949219 C 172.210938 96.789062 171.894531 95.636719 171.546875 94.496094 C 171.199219 93.351562 170.820312 92.222656 170.40625 91.101562 C 169.992188 89.980469 169.546875 88.875 169.070312 87.777344 C 168.589844 86.683594 168.082031 85.605469 167.542969 84.539062 C 167 83.476562 166.429688 82.425781 165.828125 81.394531 C 165.226562 80.363281 164.597656 79.351562 163.9375 78.355469 C 163.277344 77.359375 162.589844 76.386719 161.875 75.429688 C 161.15625 74.472656 160.414062 73.539062 159.644531 72.628906 C 158.871094 71.714844 158.074219 70.828125 157.253906 69.960938 C 156.429688 69.09375 155.585938 68.253906 154.714844 67.4375 C 153.84375 66.621094 152.949219 65.828125 152.03125 65.0625 C 151.117188 64.296875 150.179688 63.5625 149.21875 62.851562 C 148.257812 62.140625 147.28125 61.457031 146.28125 60.804688 C 145.28125 60.148438 144.265625 59.523438 143.230469 58.929688 C 142.195312 58.335938 141.140625 57.769531 140.074219 57.234375 C 139.007812 56.703125 137.921875 56.199219 136.828125 55.726562 C 135.730469 55.257812 134.621094 54.816406 133.496094 54.410156 C 132.375 54.003906 131.242188 53.628906 130.097656 53.289062 C 128.953125 52.949219 127.800781 52.640625 126.636719 52.363281 C 125.476562 52.089844 124.304688 51.851562 123.128906 51.644531 C 121.953125 51.4375 120.773438 51.265625 119.585938 51.125 C 118.398438 50.988281 117.210938 50.886719 116.019531 50.816406 C 114.828125 50.746094 113.632812 50.710938 112.441406 50.710938 Z M 112.441406 50.710938 " fill-opacity="1" fill-rule="nonzero"/><path fill="#ffffff" d="M 147.460938 140.035156 C 148.59375 137.253906 149.160156 131.726562 146.269531 130.058594 C 144.117188 128.816406 141.539062 128.035156 139.261719 127.0625 C 136.660156 125.953125 134.054688 124.605469 131.375 123.695312 C 127.597656 122.414062 125.203125 125.757812 122.753906 128.070312 C 122.226562 128.570312 121.105469 130.117188 120.289062 130.296875 C 119.273438 130.519531 117.695312 129.164062 116.847656 128.660156 C 115.261719 127.710938 113.722656 126.691406 112.230469 125.601562 C 107.558594 122.179688 103.476562 118.15625 99.996094 113.527344 C 98.316406 111.296875 96.40625 108.785156 95.28125 106.203125 C 94.53125 104.480469 95.5625 103.949219 96.730469 102.71875 C 99.089844 100.21875 102.707031 97.65625 101.457031 93.808594 C 100.628906 91.269531 99.3125 88.789062 98.261719 86.335938 C 97.222656 83.894531 96.34375 81.257812 95.09375 78.917969 C 93.460938 75.859375 89.003906 76.390625 86.25 77.308594 C 84.96875 77.679688 83.808594 78.277344 82.769531 79.109375 C 81.117188 80.589844 79.773438 82.3125 78.742188 84.277344 C 75.078125 90.628906 76.246094 100.296875 79.753906 106.375 C 84.703125 114.960938 89.152344 123.394531 96.386719 130.382812 C 103.457031 137.210938 112.351562 142.359375 121.140625 146.71875 C 125.292969 148.777344 130.050781 148.421875 134.554688 148.308594 C 139.179688 148.191406 145.621094 144.566406 147.460938 140.035156 Z M 147.460938 140.035156 " fill-opacity="1" fill-rule="nonzero"/></svg>