<svg xmlns="http://www.w3.org/2000/svg" width="300" viewBox="0 0 224.88 225" height="300" version="1.0"><defs><clipPath id="a"><path d="M0 .059h224.762v224.879H0zm0 0"/></clipPath></defs><g clip-path="url(#a)"><path fill="#20ab4b" d="M224.89 112.5a113.15 113.15 0 0 1-.542 11.023c-.18 1.832-.403 3.657-.676 5.477a111.33 111.33 0 0 1-2.152 10.824 109.433 109.433 0 0 1-1.473 5.32 108.07 108.07 0 0 1-1.73 5.239 111.885 111.885 0 0 1-4.223 10.195 109.654 109.654 0 0 1-2.48 4.93 107.617 107.617 0 0 1-2.723 4.804 108.913 108.913 0 0 1-2.953 4.66 109.116 109.116 0 0 1-3.176 4.516 121.474 121.474 0 0 1-3.395 4.352 114.583 114.583 0 0 1-3.605 4.176 108.326 108.326 0 0 1-3.809 4c-1.3 1.3-2.633 2.57-3.996 3.804a114.706 114.706 0 0 1-4.18 3.606 107.39 107.39 0 0 1-4.351 3.394 111.544 111.544 0 0 1-13.977 8.852 111.774 111.774 0 0 1-4.93 2.48 109.49 109.49 0 0 1-5.046 2.239c-1.7.703-3.418 1.367-5.149 1.988a114.057 114.057 0 0 1-10.563 3.203c-1.784.445-3.577.848-5.382 1.207a111.355 111.355 0 0 1-10.918 1.621c-1.832.18-3.664.317-5.504.406-1.836.09-3.676.133-5.516.133-1.84 0-3.68-.043-5.52-.133a112.965 112.965 0 0 1-10.98-1.082c-1.82-.27-3.632-.586-5.441-.945-1.805-.36-3.598-.762-5.383-1.207-1.785-.45-3.558-.937-5.32-1.473a117.496 117.496 0 0 1-5.242-1.73c-1.73-.621-3.45-1.285-5.149-1.988a113.977 113.977 0 0 1-9.977-4.719 111.544 111.544 0 0 1-13.977-8.852 110.189 110.189 0 0 1-4.35-3.394 114.706 114.706 0 0 1-4.18-3.606 111.301 111.301 0 0 1-7.8-7.804 110.882 110.882 0 0 1-3.606-4.176 117.26 117.26 0 0 1-3.399-4.352 117.154 117.154 0 0 1-3.176-4.515 108.914 108.914 0 0 1-2.953-4.66 115.959 115.959 0 0 1-2.722-4.805 111.823 111.823 0 0 1-4.715-9.977A112.514 112.514 0 0 1-.011 112.5a113.151 113.151 0 0 1 .542-11.023c.18-1.832.406-3.657.676-5.477a111.329 111.329 0 0 1 2.152-10.824 112.514 112.514 0 0 1 12.629-30.488c.946-1.579 1.93-3.133 2.953-4.66a117.154 117.154 0 0 1 3.176-4.516 117.26 117.26 0 0 1 3.399-4.352 110.882 110.882 0 0 1 3.605-4.176 111.301 111.301 0 0 1 7.8-7.805 114.706 114.706 0 0 1 4.18-3.605c1.422-1.168 2.876-2.3 4.352-3.394a111.544 111.544 0 0 1 13.977-8.852 113.977 113.977 0 0 1 9.976-4.719c1.7-.703 3.418-1.367 5.149-1.988a114.057 114.057 0 0 1 10.563-3.203c1.784-.445 3.577-.848 5.382-1.207A112.334 112.334 0 0 1 106.922.184c1.84-.09 3.68-.133 5.52-.133 1.84 0 3.68.043 5.515.133a112.605 112.605 0 0 1 21.805 3.234c1.785.45 3.558.937 5.32 1.473 1.762.535 3.508 1.113 5.242 1.73 1.73.621 3.45 1.285 5.149 1.988 1.699.704 3.382 1.45 5.047 2.239a111.774 111.774 0 0 1 9.73 5.199 111.544 111.544 0 0 1 9.176 6.133 107.39 107.39 0 0 1 4.351 3.394 114.706 114.706 0 0 1 4.18 3.606 111.301 111.301 0 0 1 3.996 3.804c1.305 1.301 2.57 2.633 3.809 4a114.583 114.583 0 0 1 3.605 4.176 121.474 121.474 0 0 1 3.395 4.352 109.116 109.116 0 0 1 3.175 4.515 108.913 108.913 0 0 1 2.954 4.66c.949 1.579 1.855 3.18 2.722 4.805a109.654 109.654 0 0 1 2.48 4.93 111.885 111.885 0 0 1 5.954 15.433 109.433 109.433 0 0 1 1.473 5.32A110.535 110.535 0 0 1 223.672 96c.273 1.82.496 3.645.676 5.477a113.15 113.15 0 0 1 .543 11.023zm0 0"/></g><path fill="#fff" d="M112.441 181.598a68.586 68.586 0 0 1-17.773-2.309 68.78 68.78 0 0 1-16.57-6.816l-32.22 8.629 8.388-31.301a68.595 68.595 0 0 1-1.965-3.258 76.427 76.427 0 0 1-1.781-3.356 70.701 70.701 0 0 1-1.594-3.453 68.407 68.407 0 0 1-2.605-7.14 68.68 68.68 0 0 1-2.794-14.922 68.23 68.23 0 0 1-.183-3.797 68.504 68.504 0 0 1 .031-3.8 64.93 64.93 0 0 1 .238-3.798c.114-1.261.262-2.52.446-3.773.183-1.254.402-2.504.652-3.746a70.627 70.627 0 0 1 1.918-7.356 70.737 70.737 0 0 1 2.715-7.102 70.68 70.68 0 0 1 3.48-6.757 68.448 68.448 0 0 1 4.2-6.336 72.395 72.395 0 0 1 2.351-2.984 69.775 69.775 0 0 1 2.516-2.852 69.583 69.583 0 0 1 14.703-11.96 70.775 70.775 0 0 1 6.707-3.578 70.71 70.71 0 0 1 3.492-1.509 72.133 72.133 0 0 1 3.566-1.312 66.11 66.11 0 0 1 3.637-1.114 66.96 66.96 0 0 1 3.692-.914c1.238-.27 2.48-.507 3.734-.71a71.553 71.553 0 0 1 7.558-.797 72.581 72.581 0 0 1 3.801-.086c1.27.007 2.535.05 3.801.125a68.528 68.528 0 0 1 7.55.87c1.25.216 2.493.466 3.727.747 1.239.285 2.465.601 3.684.953a69.66 69.66 0 0 1 3.625 1.148 69.867 69.867 0 0 1 10.414 4.625 68.386 68.386 0 0 1 6.457 4.008 69.28 69.28 0 0 1 3.055 2.262 69.87 69.87 0 0 1 5.715 5.016 69.726 69.726 0 0 1 5.129 5.609c.8.984 1.574 1.984 2.324 3.012a71.642 71.642 0 0 1 2.156 3.129 72.633 72.633 0 0 1 1.977 3.246 69.096 69.096 0 0 1 4.832 10.32 69.735 69.735 0 0 1 3.07 10.977c.238 1.242.441 2.496.613 3.75a68.173 68.173 0 0 1 .598 11.378 64.69 64.69 0 0 1-.219 3.797 68.096 68.096 0 0 1-.426 3.778 67.646 67.646 0 0 1-1.472 7.457c-.313 1.23-.66 2.449-1.043 3.656a65.042 65.042 0 0 1-1.243 3.594 67.1 67.1 0 0 1-1.437 3.52 68.932 68.932 0 0 1-7.61 13.137 69.275 69.275 0 0 1-7.495 8.58 69.715 69.715 0 0 1-8.801 7.235 68.551 68.551 0 0 1-3.188 2.078 74.176 74.176 0 0 1-3.293 1.899 68.944 68.944 0 0 1-3.394 1.71 67.084 67.084 0 0 1-3.48 1.528 69.62 69.62 0 0 1-7.191 2.465 71.455 71.455 0 0 1-7.418 1.66 68.12 68.12 0 0 1-3.767.52c-1.261.14-2.523.246-3.789.316a72.603 72.603 0 0 1-3.8.102zm-32.007-24.895 2.714 1.734a54.79 54.79 0 0 0 5.856 3.25 54.83 54.83 0 0 0 6.21 2.504c1.06.352 2.13.672 3.208.961 1.078.29 2.168.543 3.262.762a52.44 52.44 0 0 0 3.3.563c1.106.152 2.22.27 3.332.355 1.114.086 2.227.137 3.344.152 1.117.016 2.235 0 3.352-.054a53.017 53.017 0 0 0 3.336-.258 55.613 55.613 0 0 0 3.32-.465 56.107 56.107 0 0 0 3.281-.668 58.038 58.038 0 0 0 3.235-.867 53.142 53.142 0 0 0 3.175-1.067 52.008 52.008 0 0 0 3.102-1.257 53.592 53.592 0 0 0 5.95-3.075 57.494 57.494 0 0 0 2.82-1.804 55.739 55.739 0 0 0 2.707-1.977 55.769 55.769 0 0 0 2.578-2.137 56.302 56.302 0 0 0 2.441-2.292c.79-.79 1.555-1.602 2.297-2.438a56.181 56.181 0 0 0 2.14-2.574 55.715 55.715 0 0 0 3.793-5.52 56.26 56.26 0 0 0 1.633-2.922 56.073 56.073 0 0 0 2.715-6.121 53.936 53.936 0 0 0 1.941-6.406 56.17 56.17 0 0 0 .676-3.281c.188-1.102.348-2.207.47-3.317.12-1.109.21-2.222.265-3.34.054-1.117.074-2.23.058-3.347a53.163 53.163 0 0 0-.144-3.348 53.217 53.217 0 0 0-.352-3.332 54.101 54.101 0 0 0-2.27-9.773 55.98 55.98 0 0 0-1.148-3.145 54.897 54.897 0 0 0-2.87-6.05 54.724 54.724 0 0 0-3.595-5.649 51.523 51.523 0 0 0-2.046-2.652 54.212 54.212 0 0 0-4.566-4.895 56.28 56.28 0 0 0-2.5-2.23 55.657 55.657 0 0 0-5.387-3.977 54.723 54.723 0 0 0-2.868-1.73 53.486 53.486 0 0 0-6.023-2.922 53.934 53.934 0 0 0-6.336-2.16 51.991 51.991 0 0 0-3.258-.786 55.416 55.416 0 0 0-3.297-.582 52.88 52.88 0 0 0-3.328-.379 53.237 53.237 0 0 0-3.344-.175 56.404 56.404 0 0 0-3.351.031c-1.117.047-2.23.125-3.34.238a52.52 52.52 0 0 0-3.32.446c-1.102.18-2.2.394-3.286.644-1.09.25-2.171.531-3.242.844a55.912 55.912 0 0 0-6.293 2.281 54.784 54.784 0 0 0-5.969 3.035 55.67 55.67 0 0 0-5.55 3.746 53.829 53.829 0 0 0-5.051 4.399 54.205 54.205 0 0 0-6.469 7.668 53.174 53.174 0 0 0-1.828 2.808 54.723 54.723 0 0 0-1.656 2.91 53.576 53.576 0 0 0-1.469 3.012 54.742 54.742 0 0 0-1.285 3.09 54.834 54.834 0 0 0-2.68 9.672 52.891 52.891 0 0 0-.492 3.312 56.217 56.217 0 0 0-.289 3.336 59.974 59.974 0 0 0-.082 3.352c.008 1.117.05 2.23.125 3.344.074 1.117.184 2.226.328 3.336a55.937 55.937 0 0 0 1.27 6.574 53.982 53.982 0 0 0 2.066 6.367c.41 1.04.848 2.066 1.32 3.078a54.844 54.844 0 0 0 5.063 8.664l2.015 2.813-3.593 13.41zm0 0"/><path fill="#20ab4b" d="M112.441 50.71c-2.828 0-5.64.196-8.441.583-2.797.383-5.559.96-8.277 1.727a61.168 61.168 0 0 0-7.97 2.84A61.836 61.836 0 0 0 67.18 70.437a61.95 61.95 0 0 0-9.692 13.816 61.986 61.986 0 0 0-3.343 7.77 61.864 61.864 0 0 0-3.328 24.996 61.765 61.765 0 0 0 6.937 24.242 61.523 61.523 0 0 0 4.437 7.199l-5.972 22.3 22.996-6.16a62.558 62.558 0 0 0 6.25 3.493 59.554 59.554 0 0 0 3.265 1.469 61.795 61.795 0 0 0 52-2.125 64.316 64.316 0 0 0 3.133-1.731 60.653 60.653 0 0 0 5.941-3.992 62.007 62.007 0 0 0 2.79-2.246 61.874 61.874 0 0 0 2.652-2.406c.863-.829 1.7-1.68 2.512-2.555a61.836 61.836 0 0 0 6.582-8.473 62.56 62.56 0 0 0 3.531-6.226 62.66 62.66 0 0 0 2.785-6.594 65.255 65.255 0 0 0 1.102-3.406c.336-1.149.637-2.301.902-3.465.27-1.164.5-2.336.7-3.512.202-1.18.367-2.36.495-3.547.133-1.187.23-2.379.293-3.57a68.35 68.35 0 0 0 .082-3.578 64.264 64.264 0 0 0-.125-3.578 63.99 63.99 0 0 0-.332-3.567 62.832 62.832 0 0 0-1.28-7.043 61.75 61.75 0 0 0-.946-3.453 60.721 60.721 0 0 0-1.14-3.394 64.125 64.125 0 0 0-1.337-3.325 66.098 66.098 0 0 0-1.527-3.238 62.512 62.512 0 0 0-5.668-9.11 62.01 62.01 0 0 0-4.621-5.468 61.863 61.863 0 0 0-20.426-14.234 62.77 62.77 0 0 0-6.73-2.438 65.408 65.408 0 0 0-3.461-.926 62.687 62.687 0 0 0-7.051-1.238 64.25 64.25 0 0 0-3.566-.309 60.788 60.788 0 0 0-3.579-.105zm0 0"/><path fill="#fff" d="M147.46 140.035c1.134-2.781 1.7-8.308-1.19-9.976-2.153-1.243-4.73-2.024-7.008-2.996-2.602-1.11-5.207-2.458-7.887-3.368-3.777-1.28-6.172 2.063-8.621 4.375-.527.5-1.649 2.047-2.465 2.227-1.016.223-2.594-1.133-3.441-1.637a60.528 60.528 0 0 1-4.618-3.058 58.39 58.39 0 0 1-12.234-12.075c-1.68-2.23-3.59-4.742-4.715-7.324-.75-1.723.281-2.254 1.45-3.484 2.359-2.5 5.976-5.063 4.726-8.91-.828-2.54-2.144-5.02-3.195-7.473-1.04-2.441-1.918-5.078-3.168-7.418-1.633-3.059-6.09-2.527-8.844-1.61a9.929 9.929 0 0 0-3.48 1.801 18.315 18.315 0 0 0-4.028 5.168c-3.664 6.352-2.496 16.02 1.012 22.098 4.95 8.586 9.398 17.02 16.633 24.008 7.07 6.828 15.965 11.976 24.754 16.336 4.152 2.058 8.91 1.703 13.414 1.59 4.625-.118 11.066-3.743 12.906-8.274zm0 0"/></svg>